{"glyphs":{"0":{"ha":853,"x_min":0,"x_max":0,"o":"m 426 -18 b 86 311 246 -18 86 106 l 86 661 b 426 990 86 867 246 990 b 767 661 608 990 767 867 l 767 311 b 426 -18 767 106 608 -18 m 426 163 b 578 317 515 163 578 225 l 578 656 b 426 811 578 747 514 811 b 275 656 339 811 275 747 l 275 317 b 426 163 275 225 338 163 "},"1":{"ha":633,"x_min":0,"x_max":0,"o":"m 301 0 l 301 800 l 131 800 l 131 972 l 489 972 l 489 0 "},"2":{"ha":829,"x_min":0,"x_max":0,"o":"m 346 176 l 740 176 l 740 0 l 90 0 l 90 169 l 463 539 b 536 685 507 585 536 631 b 406 811 536 749 493 811 b 281 685 326 811 281 749 l 281 635 l 92 635 l 92 685 b 407 990 92 835 199 990 b 733 685 611 990 733 839 b 614 433 733 576 685 503 "},"3":{"ha":843,"x_min":0,"x_max":0,"o":"m 557 586 b 754 301 676 542 754 433 b 417 -18 754 111 617 -18 b 85 290 217 -18 89 103 l 272 290 b 417 156 275 201 336 156 b 567 304 504 156 567 219 b 396 456 567 388 507 456 l 233 456 l 233 461 l 524 801 l 110 801 l 110 972 l 738 972 l 738 806 "},"4":{"ha":879,"x_min":0,"x_max":0,"o":"m 815 375 l 815 199 l 711 199 l 711 0 l 529 0 l 529 199 l 71 199 l 71 358 l 354 972 l 547 972 l 275 375 l 529 375 l 529 647 l 711 647 l 711 375 "},"5":{"ha":819,"x_min":0,"x_max":0,"o":"m 400 -18 b 68 290 200 -18 72 106 l 254 290 b 400 156 260 204 319 156 b 549 304 488 156 549 218 b 382 457 549 394 478 457 l 97 457 l 97 972 l 683 972 l 683 801 l 274 801 l 274 625 l 407 625 b 738 304 610 625 738 472 b 400 -18 738 111 600 -18 "},"6":{"ha":869,"x_min":0,"x_max":0,"o":"m 433 -18 b 86 329 242 -18 86 132 b 151 533 86 390 104 446 l 400 972 l 607 972 l 431 664 b 472 667 444 667 458 667 b 785 329 646 660 785 517 b 433 -18 785 135 626 -18 m 435 156 b 607 329 532 156 607 231 b 435 504 607 426 532 504 b 264 329 339 504 264 426 b 435 156 264 229 339 156 "},"7":{"ha":754,"x_min":0,"x_max":0,"o":"m 60 972 l 696 972 l 696 803 l 346 0 l 149 0 l 504 803 l 60 803 "},"8":{"ha":853,"x_min":0,"x_max":0,"o":"m 425 -17 b 96 275 236 -15 96 99 b 217 508 96 396 156 465 b 114 715 163 546 114 621 b 425 990 114 888 257 990 b 736 715 593 990 736 888 b 633 508 736 621 688 546 b 754 275 694 465 754 396 b 425 -17 754 99 614 -15 m 425 582 b 564 713 514 583 564 647 b 425 838 564 778 515 838 b 286 713 335 838 286 778 b 425 582 286 647 338 582 m 425 143 b 576 278 515 144 576 206 b 425 414 576 360 515 414 b 275 278 335 414 275 360 b 425 143 275 206 335 144 "},"9":{"ha":869,"x_min":0,"x_max":0,"o":"m 436 990 b 785 643 629 990 785 840 b 718 439 785 582 767 526 l 469 0 l 264 0 l 439 308 b 399 306 425 306 411 306 b 86 643 224 306 86 456 b 436 990 86 838 244 990 m 435 817 b 264 643 339 817 264 742 b 435 468 264 546 339 468 b 607 643 532 468 607 546 b 435 817 607 743 532 817 "},"\u0000":{"ha":0,"x_min":0,"x_max":0,"o":""},"\r":{"ha":0,"x_min":0,"x_max":0,"o":""}," ":{"ha":340,"x_min":0,"x_max":0,"o":""},"A":{"ha":768,"x_min":0,"x_max":0,"o":"m 753 0 l 560 0 l 525 143 l 235 143 l 200 0 l 17 0 l 267 972 l 501 972 m 278 315 l 485 315 l 383 743 "},"Á":{"ha":768,"x_min":0,"x_max":0,"o":"m 296 1068 l 360 1253 l 553 1253 l 435 1068 m 753 0 l 560 0 l 525 143 l 235 143 l 200 0 l 17 0 l 267 972 l 501 972 m 383 743 l 278 315 l 485 315 "},"Ă":{"ha":768,"x_min":0,"x_max":0,"o":"m 386 1063 b 188 1251 253 1063 188 1146 l 321 1251 b 386 1183 321 1214 340 1183 b 450 1251 428 1183 450 1215 l 582 1251 b 386 1063 582 1146 517 1063 m 501 972 l 753 0 l 560 0 l 525 143 l 235 143 l 200 0 l 17 0 l 267 972 m 485 315 l 383 743 l 278 315 "},"Ǎ":{"ha":768,"x_min":0,"x_max":0,"o":"m 475 1068 l 283 1068 l 165 1253 l 317 1253 l 381 1182 l 444 1253 l 594 1253 m 501 972 l 753 0 l 560 0 l 525 143 l 235 143 l 200 0 l 17 0 l 267 972 m 278 315 l 485 315 l 383 743 "},"Â":{"ha":768,"x_min":0,"x_max":0,"o":"m 382 1139 l 318 1068 l 167 1068 l 285 1253 l 476 1253 l 596 1068 l 446 1068 m 501 972 l 753 0 l 560 0 l 525 143 l 235 143 l 200 0 l 17 0 l 267 972 m 278 315 l 485 315 l 383 743 "},"Ä":{"ha":768,"x_min":0,"x_max":0,"o":"m 254 1058 b 157 1158 199 1058 157 1101 b 254 1256 157 1213 199 1256 b 356 1158 315 1256 356 1213 b 254 1058 356 1101 315 1058 m 511 1058 b 413 1158 453 1058 413 1101 b 511 1256 413 1213 453 1256 b 613 1158 569 1256 613 1213 b 511 1058 611 1101 569 1058 m 200 0 l 17 0 l 267 972 l 501 972 l 753 0 l 560 0 l 525 143 l 235 143 m 485 315 l 383 743 l 278 315 "},"À":{"ha":768,"x_min":0,"x_max":0,"o":"m 472 1068 l 333 1068 l 215 1253 l 408 1253 m 235 143 l 200 0 l 17 0 l 267 972 l 501 972 l 753 0 l 560 0 l 525 143 m 278 315 l 485 315 l 383 743 "},"Ā":{"ha":768,"x_min":0,"x_max":0,"o":"m 200 1100 l 200 1242 l 572 1242 l 572 1100 m 525 143 l 235 143 l 200 0 l 17 0 l 267 972 l 501 972 l 753 0 l 560 0 m 383 743 l 278 315 l 485 315 "},"Ą":{"ha":768,"x_min":0,"x_max":0,"o":"m 628 -142 b 682 -187 628 -169 650 -187 l 753 -187 l 753 -310 l 636 -310 b 481 -167 551 -310 481 -258 b 553 -31 481 -111 507 -71 l 585 0 l 560 0 l 525 143 l 235 143 l 200 0 l 17 0 l 267 972 l 501 972 l 753 0 l 650 -99 b 628 -142 639 -110 628 -122 m 278 315 l 485 315 l 383 743 "},"Å":{"ha":768,"x_min":0,"x_max":0,"o":"m 383 1028 b 239 1167 301 1028 239 1089 b 382 1303 239 1246 301 1303 b 528 1168 467 1303 528 1246 b 383 1028 528 1089 465 1028 m 383 1111 b 439 1168 417 1111 439 1135 b 382 1221 439 1199 417 1221 b 328 1167 351 1221 328 1199 b 383 1111 328 1135 351 1111 m 560 0 l 525 143 l 235 143 l 200 0 l 17 0 l 267 972 l 501 972 l 753 0 m 485 315 l 383 743 l 278 315 "},"Ã":{"ha":768,"x_min":0,"x_max":0,"o":"m 475 1083 b 403 1099 446 1083 425 1090 l 344 1124 b 314 1132 331 1129 324 1132 b 285 1101 297 1132 285 1121 l 285 1085 l 169 1085 l 169 1131 b 297 1261 169 1213 224 1261 b 367 1246 321 1261 344 1254 l 421 1222 b 460 1213 436 1217 447 1213 b 489 1243 475 1213 489 1225 l 489 1260 l 603 1260 l 603 1214 b 475 1083 603 1132 549 1083 m 753 0 l 560 0 l 525 143 l 235 143 l 200 0 l 17 0 l 267 972 l 501 972 m 278 315 l 485 315 l 383 743 "},"Æ":{"ha":1072,"x_min":0,"x_max":0,"o":"m 707 176 l 1003 176 l 1003 0 l 560 0 l 526 143 l 235 143 l 200 0 l 17 0 l 267 972 l 989 972 l 989 799 l 546 799 l 603 581 l 943 581 l 943 410 l 646 410 m 278 315 l 485 315 l 383 744 "},"B":{"ha":790,"x_min":0,"x_max":0,"o":"m 108 0 l 108 972 l 435 972 b 733 700 621 972 733 842 b 628 493 733 590 675 522 b 736 286 689 453 736 386 b 410 0 736 103 594 0 m 292 575 l 426 575 b 547 690 496 575 547 621 b 426 804 547 747 501 804 l 292 804 m 292 168 l 419 168 b 544 292 485 168 544 215 b 419 414 544 361 489 414 l 292 414 "},"C":{"ha":974,"x_min":0,"x_max":0,"o":"m 554 169 b 797 282 654 168 742 215 l 933 146 b 554 -17 847 46 715 -17 b 50 490 249 -17 50 210 b 554 990 50 753 249 990 b 935 829 715 990 846 926 l 801 694 b 554 804 743 761 654 806 b 251 490 381 804 251 674 b 554 169 251 308 378 169 "},"Ć":{"ha":974,"x_min":0,"x_max":0,"o":"m 469 1068 l 533 1253 l 726 1253 l 608 1068 m 554 169 b 797 282 654 168 742 215 l 933 146 b 554 -17 847 46 715 -17 b 50 490 249 -17 50 210 b 554 990 50 753 249 990 b 935 829 715 990 846 926 l 801 694 b 554 804 743 761 654 806 b 251 490 381 804 251 674 b 554 169 251 308 378 169 "},"Č":{"ha":974,"x_min":0,"x_max":0,"o":"m 649 1068 l 457 1068 l 339 1253 l 490 1253 l 554 1182 l 618 1253 l 768 1253 m 554 169 b 797 282 654 168 742 215 l 933 146 b 554 -17 847 46 715 -17 b 50 490 249 -17 50 210 b 554 990 50 753 249 990 b 935 829 715 990 846 926 l 801 694 b 554 804 743 761 654 806 b 251 490 381 804 251 674 b 554 169 251 308 378 169 "},"Ç":{"ha":974,"x_min":0,"x_max":0,"o":"m 554 169 b 797 282 654 168 742 215 l 933 146 b 574 -17 850 50 725 -11 l 565 -47 l 578 -47 b 704 -176 656 -47 704 -107 b 569 -310 704 -254 644 -310 l 443 -310 l 443 -215 l 549 -215 b 593 -175 575 -215 593 -199 b 549 -137 593 -151 575 -137 l 456 -137 l 481 -12 b 50 490 217 21 50 233 b 554 990 50 753 249 990 b 935 829 715 990 846 926 l 801 694 b 554 804 743 761 654 806 b 251 490 381 804 251 674 b 554 169 251 308 378 169 "},"Ĉ":{"ha":974,"x_min":0,"x_max":0,"o":"m 556 1139 l 492 1068 l 340 1068 l 458 1253 l 650 1253 l 769 1068 l 619 1068 m 554 169 b 797 282 654 168 742 215 l 933 146 b 554 -17 847 46 715 -17 b 50 490 249 -17 50 210 b 554 990 50 753 249 990 b 935 829 715 990 846 926 l 801 694 b 554 804 743 761 654 806 b 251 490 381 804 251 674 b 554 169 251 308 378 169 "},"Ċ":{"ha":974,"x_min":0,"x_max":0,"o":"m 558 1057 b 456 1164 499 1057 456 1104 b 558 1267 456 1221 499 1267 b 665 1164 622 1267 665 1221 b 558 1057 665 1104 622 1057 m 554 169 b 797 282 654 168 742 215 l 933 146 b 554 -17 847 46 715 -17 b 50 490 249 -17 50 210 b 554 990 50 753 249 990 b 935 829 715 990 846 926 l 801 694 b 554 804 743 761 654 806 b 251 490 381 804 251 674 b 554 169 251 308 378 169 "},"D":{"ha":857,"x_min":0,"x_max":0,"o":"m 108 0 l 108 972 l 267 972 b 807 490 613 972 807 743 b 267 0 807 225 613 0 m 294 178 b 613 490 476 178 613 303 b 294 793 613 678 476 793 "},"Ð":{"ha":953,"x_min":0,"x_max":0,"o":"m 364 972 b 903 490 708 972 903 743 b 364 0 903 225 708 0 l 204 0 l 204 417 l 108 417 l 108 574 l 204 574 l 204 972 m 390 178 b 710 490 572 178 710 303 b 390 793 710 678 572 793 l 390 574 l 544 574 l 544 417 l 390 417 "},"Ď":{"ha":857,"x_min":0,"x_max":0,"o":"m 499 1068 l 307 1068 l 189 1253 l 340 1253 l 404 1182 l 468 1253 l 618 1253 m 267 972 b 807 490 613 972 807 743 b 267 0 807 225 613 0 l 108 0 l 108 972 m 294 178 b 613 490 476 178 613 303 b 294 793 613 678 476 793 "},"Đ":{"ha":953,"x_min":0,"x_max":0,"o":"m 364 972 b 903 490 708 972 903 743 b 364 0 903 225 708 0 l 204 0 l 204 417 l 108 417 l 108 574 l 204 574 l 204 972 m 390 178 b 710 490 572 178 710 303 b 390 793 710 678 572 793 l 390 574 l 544 574 l 544 417 l 390 417 "},"E":{"ha":749,"x_min":0,"x_max":0,"o":"m 292 799 l 292 581 l 619 581 l 619 410 l 292 410 l 292 176 l 679 176 l 679 0 l 108 0 l 108 972 l 665 972 l 665 799 "},"É":{"ha":749,"x_min":0,"x_max":0,"o":"m 308 1068 l 372 1253 l 565 1253 l 447 1068 m 679 0 l 108 0 l 108 972 l 665 972 l 665 799 l 292 799 l 292 581 l 619 581 l 619 410 l 292 410 l 292 176 l 679 176 "},"Ĕ":{"ha":749,"x_min":0,"x_max":0,"o":"m 397 1063 b 199 1251 264 1063 199 1146 l 332 1251 b 397 1183 332 1214 351 1183 b 461 1251 439 1183 461 1215 l 593 1251 b 397 1063 593 1146 528 1063 m 679 176 l 679 0 l 108 0 l 108 972 l 665 972 l 665 799 l 292 799 l 292 581 l 619 581 l 619 410 l 292 410 l 292 176 "},"Ě":{"ha":749,"x_min":0,"x_max":0,"o":"m 488 1068 l 296 1068 l 178 1253 l 329 1253 l 393 1182 l 457 1253 l 607 1253 m 292 176 l 679 176 l 679 0 l 108 0 l 108 972 l 665 972 l 665 799 l 292 799 l 292 581 l 619 581 l 619 410 l 292 410 "},"Ê":{"ha":749,"x_min":0,"x_max":0,"o":"m 393 1139 l 329 1068 l 178 1068 l 296 1253 l 488 1253 l 607 1068 l 457 1068 m 292 176 l 679 176 l 679 0 l 108 0 l 108 972 l 665 972 l 665 799 l 292 799 l 292 581 l 619 581 l 619 410 l 292 410 "},"Ë":{"ha":749,"x_min":0,"x_max":0,"o":"m 267 1058 b 169 1158 211 1058 169 1101 b 267 1256 169 1213 211 1256 b 368 1158 328 1256 368 1213 b 267 1058 368 1101 328 1058 m 524 1058 b 425 1158 465 1058 425 1101 b 524 1256 425 1213 465 1256 b 625 1158 582 1256 625 1213 b 524 1058 624 1101 582 1058 m 619 410 l 292 410 l 292 176 l 679 176 l 679 0 l 108 0 l 108 972 l 665 972 l 665 799 l 292 799 l 292 581 l 619 581 "},"Ė":{"ha":749,"x_min":0,"x_max":0,"o":"m 396 1057 b 293 1164 336 1057 293 1104 b 396 1267 293 1221 336 1267 b 503 1164 460 1267 503 1221 b 396 1057 503 1104 460 1057 m 619 581 l 619 410 l 292 410 l 292 176 l 679 176 l 679 0 l 108 0 l 108 972 l 665 972 l 665 799 l 292 799 l 292 581 "},"È":{"ha":749,"x_min":0,"x_max":0,"o":"m 485 1068 l 346 1068 l 228 1253 l 421 1253 m 292 581 l 619 581 l 619 410 l 292 410 l 292 176 l 679 176 l 679 0 l 108 0 l 108 972 l 665 972 l 665 799 l 292 799 "},"Ē":{"ha":749,"x_min":0,"x_max":0,"o":"m 213 1100 l 213 1242 l 585 1242 l 585 1100 m 292 799 l 292 581 l 619 581 l 619 410 l 292 410 l 292 176 l 679 176 l 679 0 l 108 0 l 108 972 l 665 972 l 665 799 "},"Ę":{"ha":749,"x_min":0,"x_max":0,"o":"m 679 0 l 576 -99 b 554 -142 565 -110 554 -122 b 608 -187 554 -169 576 -187 l 679 -187 l 679 -310 l 563 -310 b 407 -167 478 -310 407 -258 b 479 -31 407 -111 433 -71 l 511 0 l 108 0 l 108 972 l 665 972 l 665 799 l 292 799 l 292 581 l 619 581 l 619 410 l 292 410 l 292 176 l 679 176 "},"F":{"ha":735,"x_min":0,"x_max":0,"o":"m 108 0 l 108 972 l 667 972 l 667 799 l 292 799 l 292 558 l 647 558 l 647 389 l 292 389 l 292 0 "},"G":{"ha":1082,"x_min":0,"x_max":0,"o":"m 526 388 l 526 560 l 1033 560 l 1033 460 b 549 -17 1033 196 847 -17 b 50 490 246 -17 50 210 b 554 990 50 753 246 990 b 928 833 715 990 839 929 l 792 699 b 554 804 736 764 651 806 b 251 490 382 804 251 678 b 550 169 251 308 374 169 b 829 388 703 169 806 257 "},"Ğ":{"ha":1082,"x_min":0,"x_max":0,"o":"m 556 1063 b 357 1251 422 1063 357 1146 l 490 1251 b 556 1183 490 1214 510 1183 b 619 1251 597 1183 619 1215 l 751 1251 b 556 1063 751 1146 686 1063 m 526 388 l 526 560 l 1033 560 l 1033 460 b 549 -17 1033 196 847 -17 b 50 490 246 -17 50 210 b 554 990 50 753 246 990 b 928 833 715 990 839 929 l 792 699 b 554 804 736 764 651 806 b 251 490 382 804 251 678 b 550 169 251 308 374 169 b 829 388 703 169 806 257 "},"Ǧ":{"ha":1082,"x_min":0,"x_max":0,"o":"m 646 1068 l 454 1068 l 336 1253 l 488 1253 l 551 1182 l 615 1253 l 765 1253 m 526 560 l 1033 560 l 1033 460 b 549 -17 1033 196 847 -17 b 50 490 246 -17 50 210 b 554 990 50 753 246 990 b 928 833 715 990 839 929 l 792 699 b 554 804 736 764 651 806 b 251 490 382 804 251 678 b 550 169 251 308 374 169 b 829 388 703 169 806 257 l 526 388 "},"Ĝ":{"ha":1082,"x_min":0,"x_max":0,"o":"m 551 1139 l 488 1068 l 336 1068 l 454 1253 l 646 1253 l 765 1068 l 615 1068 m 526 560 l 1033 560 l 1033 460 b 549 -17 1033 196 847 -17 b 50 490 246 -17 50 210 b 554 990 50 753 246 990 b 928 833 715 990 839 929 l 792 699 b 554 804 736 764 651 806 b 251 490 382 804 251 678 b 550 169 251 308 374 169 b 829 388 703 169 806 257 l 526 388 "},"Ģ":{"ha":1082,"x_min":0,"x_max":0,"o":"m 526 560 l 1033 560 l 1033 460 b 549 -17 1033 196 847 -17 b 50 490 246 -17 50 210 b 554 990 50 753 246 990 b 928 833 715 990 839 929 l 792 699 b 554 804 736 764 651 806 b 251 490 382 804 251 678 b 550 169 251 308 374 169 b 829 388 703 169 806 257 l 526 388 m 553 -74 b 650 -175 606 -74 650 -110 l 650 -243 b 521 -358 650 -322 592 -358 l 471 -358 l 471 -276 l 521 -276 b 564 -237 549 -276 564 -262 l 564 -233 l 549 -233 b 467 -156 500 -233 467 -199 b 553 -74 467 -108 506 -74 "},"Ġ":{"ha":1082,"x_min":0,"x_max":0,"o":"m 554 1057 b 451 1164 494 1057 451 1104 b 554 1267 451 1221 494 1267 b 661 1164 618 1267 661 1221 b 554 1057 661 1104 618 1057 m 526 388 l 526 560 l 1033 560 l 1033 460 b 549 -17 1033 196 847 -17 b 50 490 246 -17 50 210 b 554 990 50 753 246 990 b 928 833 715 990 839 929 l 792 699 b 554 804 736 764 651 806 b 251 490 382 804 251 678 b 550 169 251 308 374 169 b 829 388 703 169 806 257 "},"H":{"ha":894,"x_min":0,"x_max":0,"o":"m 294 0 l 108 0 l 108 972 l 294 972 l 294 586 l 600 586 l 600 972 l 788 972 l 788 0 l 600 0 l 600 406 l 294 406 "},"Ħ":{"ha":894,"x_min":0,"x_max":0,"o":"m 867 857 l 867 710 l 788 710 l 788 0 l 600 0 l 600 406 l 294 406 l 294 0 l 108 0 l 108 710 l 35 710 l 35 857 l 108 857 l 108 972 l 294 972 l 294 857 l 600 857 l 600 972 l 788 972 l 788 857 m 600 586 l 600 710 l 294 710 l 294 586 "},"Ĥ":{"ha":894,"x_min":0,"x_max":0,"o":"m 451 1139 l 388 1068 l 236 1068 l 354 1253 l 546 1253 l 665 1068 l 515 1068 m 600 972 l 788 972 l 788 0 l 600 0 l 600 406 l 294 406 l 294 0 l 108 0 l 108 972 l 294 972 l 294 586 l 600 586 "},"I":{"ha":399,"x_min":0,"x_max":0,"o":"m 108 0 l 108 972 l 290 972 l 290 0 "},"Ĳ":{"ha":974,"x_min":0,"x_max":0,"o":"m 108 972 l 290 972 l 290 0 l 108 0 m 433 0 l 433 174 l 567 174 b 703 318 657 174 703 228 l 703 801 l 511 801 l 511 972 l 888 972 l 888 308 b 582 0 888 131 789 0 "},"Í":{"ha":399,"x_min":0,"x_max":0,"o":"m 118 1068 l 182 1253 l 375 1253 l 257 1068 m 108 0 l 108 972 l 290 972 l 290 0 "},"Ĭ":{"ha":399,"x_min":0,"x_max":0,"o":"m 207 1063 b 8 1251 74 1063 8 1146 l 142 1251 b 207 1183 142 1214 161 1183 b 271 1251 249 1183 271 1215 l 403 1251 b 207 1063 403 1146 338 1063 m 290 0 l 108 0 l 108 972 l 290 972 "},"Ǐ":{"ha":399,"x_min":0,"x_max":0,"o":"m 265 1253 l 415 1253 l 296 1068 l 104 1068 l -14 1253 l 138 1253 l 201 1182 m 108 0 l 108 972 l 290 972 l 290 0 "},"Î":{"ha":399,"x_min":0,"x_max":0,"o":"m 203 1139 l 139 1068 l -12 1068 l 106 1253 l 297 1253 l 417 1068 l 267 1068 m 108 0 l 108 972 l 290 972 l 290 0 "},"Ï":{"ha":399,"x_min":0,"x_max":0,"o":"m 76 1058 b -21 1158 21 1058 -21 1101 b 76 1256 -21 1213 21 1256 b 178 1158 138 1256 178 1213 b 76 1058 178 1101 138 1058 m 333 1058 b 235 1158 275 1058 235 1101 b 333 1256 235 1213 275 1256 b 435 1158 392 1256 435 1213 b 333 1058 433 1101 392 1058 m 108 0 l 108 972 l 290 972 l 290 0 "},"İ":{"ha":399,"x_min":0,"x_max":0,"o":"m 206 1057 b 103 1164 146 1057 103 1104 b 206 1267 103 1221 146 1267 b 313 1164 269 1267 313 1221 b 206 1057 313 1104 269 1057 m 290 0 l 108 0 l 108 972 l 290 972 "},"Ì":{"ha":399,"x_min":0,"x_max":0,"o":"m 294 1068 l 156 1068 l 38 1253 l 231 1253 m 290 972 l 290 0 l 108 0 l 108 972 "},"Ī":{"ha":399,"x_min":0,"x_max":0,"o":"m 22 1100 l 22 1242 l 394 1242 l 394 1100 m 108 972 l 290 972 l 290 0 l 108 0 "},"Į":{"ha":399,"x_min":0,"x_max":0,"o":"m 290 0 l 188 -99 b 165 -142 176 -110 165 -122 b 219 -187 165 -169 188 -187 l 290 -187 l 290 -310 l 174 -310 b 18 -167 89 -310 18 -258 b 90 -31 18 -111 44 -71 l 122 0 l 108 0 l 108 972 l 290 972 "},"Ĩ":{"ha":399,"x_min":0,"x_max":0,"o":"m 296 1083 b 224 1099 267 1083 246 1090 l 165 1124 b 135 1132 151 1129 144 1132 b 106 1101 118 1132 106 1121 l 106 1085 l -10 1085 l -10 1131 b 118 1261 -10 1213 44 1261 b 188 1246 142 1261 165 1254 l 242 1222 b 281 1213 257 1217 268 1213 b 310 1243 296 1213 310 1225 l 310 1260 l 424 1260 l 424 1214 b 296 1083 424 1132 369 1083 m 108 0 l 108 972 l 290 972 l 290 0 "},"J":{"ha":583,"x_min":0,"x_max":0,"o":"m 43 0 l 43 174 l 176 174 b 313 318 267 174 313 228 l 313 801 l 121 801 l 121 972 l 497 972 l 497 308 b 192 0 497 131 399 0 "},"Ĵ":{"ha":583,"x_min":0,"x_max":0,"o":"m 321 1139 l 257 1068 l 106 1068 l 224 1253 l 415 1253 l 535 1068 l 385 1068 m 121 801 l 121 972 l 497 972 l 497 308 b 192 0 497 131 399 0 l 43 0 l 43 174 l 176 174 b 313 318 267 174 313 228 l 313 801 "},"K":{"ha":763,"x_min":0,"x_max":0,"o":"m 763 0 l 540 0 l 292 426 l 292 0 l 108 0 l 108 972 l 292 972 l 292 594 l 486 972 l 692 972 l 451 513 "},"Ķ":{"ha":763,"x_min":0,"x_max":0,"o":"m 451 513 l 763 0 l 540 0 l 292 426 l 292 0 l 108 0 l 108 972 l 292 972 l 292 594 l 486 972 l 692 972 m 406 -74 b 503 -175 458 -74 503 -110 l 503 -243 b 374 -358 503 -322 444 -358 l 324 -358 l 324 -276 l 374 -276 b 417 -237 401 -276 417 -262 l 417 -233 l 401 -233 b 319 -156 353 -233 319 -199 b 406 -74 319 -108 358 -74 "},"L":{"ha":715,"x_min":0,"x_max":0,"o":"m 657 0 l 108 0 l 108 972 l 294 972 l 294 179 l 657 179 "},"Ĺ":{"ha":715,"x_min":0,"x_max":0,"o":"m 125 1068 l 189 1253 l 382 1253 l 264 1068 m 657 0 l 108 0 l 108 972 l 294 972 l 294 179 l 657 179 "},"Ľ":{"ha":715,"x_min":0,"x_max":0,"o":"m 657 0 l 108 0 l 108 972 l 294 972 l 294 179 l 657 179 m 419 711 l 419 972 l 590 972 l 543 711 "},"Ļ":{"ha":715,"x_min":0,"x_max":0,"o":"m 294 179 l 657 179 l 657 0 l 108 0 l 108 972 l 294 972 m 393 -74 b 490 -175 446 -74 490 -110 l 490 -243 b 361 -358 490 -322 432 -358 l 311 -358 l 311 -276 l 361 -276 b 404 -237 389 -276 404 -262 l 404 -233 l 389 -233 b 307 -156 340 -233 307 -199 b 393 -74 307 -108 346 -74 "},"Ŀ":{"ha":658,"x_min":0,"x_max":0,"o":"m 657 0 l 108 0 l 108 972 l 294 972 l 294 179 l 657 179 m 510 426 b 389 544 444 426 389 481 b 510 664 389 611 444 664 b 632 544 578 664 632 611 b 510 426 632 481 578 426 "},"Ł":{"ha":858,"x_min":0,"x_max":0,"o":"m 436 179 l 800 179 l 800 0 l 250 0 l 250 344 l 108 279 l 108 458 l 250 524 l 250 972 l 436 972 l 436 610 l 668 717 l 668 539 l 436 432 "},"M":{"ha":1067,"x_min":0,"x_max":0,"o":"m 108 0 l 108 972 l 326 972 l 533 275 l 740 972 l 960 972 l 960 0 l 785 0 l 785 551 l 617 0 l 450 0 l 282 550 l 282 0 "},"N":{"ha":935,"x_min":0,"x_max":0,"o":"m 640 0 l 292 615 l 292 0 l 108 0 l 108 972 l 297 972 l 646 357 l 646 972 l 828 972 l 828 0 "},"Ń":{"ha":935,"x_min":0,"x_max":0,"o":"m 383 1068 l 447 1253 l 640 1253 l 522 1068 m 292 0 l 108 0 l 108 972 l 297 972 l 646 357 l 646 972 l 828 972 l 828 0 l 640 0 l 292 615 "},"Ň":{"ha":935,"x_min":0,"x_max":0,"o":"m 563 1068 l 371 1068 l 253 1253 l 404 1253 l 468 1182 l 532 1253 l 682 1253 m 646 972 l 828 972 l 828 0 l 640 0 l 292 615 l 292 0 l 108 0 l 108 972 l 297 972 l 646 357 "},"Ņ":{"ha":935,"x_min":0,"x_max":0,"o":"m 646 972 l 828 972 l 828 0 l 640 0 l 292 615 l 292 0 l 108 0 l 108 972 l 297 972 l 646 357 m 469 -74 b 567 -175 522 -74 567 -110 l 567 -243 b 438 -358 567 -322 508 -358 l 388 -358 l 388 -276 l 438 -276 b 481 -237 465 -276 481 -262 l 481 -233 l 465 -233 b 383 -156 417 -233 383 -199 b 469 -74 383 -108 422 -74 "},"Ŋ":{"ha":935,"x_min":0,"x_max":0,"o":"m 646 972 l 828 972 l 828 -1 b 522 -297 828 -176 725 -297 l 449 -297 l 449 -125 l 506 -125 b 646 15 594 -125 646 -74 l 646 24 l 292 615 l 292 0 l 108 0 l 108 972 l 292 972 l 646 371 "},"Ñ":{"ha":935,"x_min":0,"x_max":0,"o":"m 563 1083 b 490 1099 533 1083 513 1090 l 432 1124 b 401 1132 418 1129 411 1132 b 372 1101 385 1132 372 1121 l 372 1085 l 257 1085 l 257 1131 b 385 1261 257 1213 311 1261 b 454 1246 408 1261 432 1254 l 508 1222 b 547 1213 524 1217 535 1213 b 576 1243 563 1213 576 1225 l 576 1260 l 690 1260 l 690 1214 b 563 1083 690 1132 636 1083 m 640 0 l 292 615 l 292 0 l 108 0 l 108 972 l 297 972 l 646 357 l 646 972 l 828 972 l 828 0 "},"O":{"ha":1108,"x_min":0,"x_max":0,"o":"m 554 -17 b 50 490 249 -17 50 210 b 554 990 50 753 249 990 b 1060 490 860 990 1060 753 b 554 -17 1060 210 860 -17 m 554 169 b 857 490 731 169 857 308 b 554 804 857 674 729 804 b 251 490 381 804 251 674 b 554 169 251 308 379 169 "},"Ó":{"ha":1108,"x_min":0,"x_max":0,"o":"m 469 1069 l 533 1254 l 726 1254 l 607 1069 m 554 -17 b 50 490 249 -17 50 210 b 554 990 50 753 249 990 b 1060 490 860 990 1060 753 b 554 -17 1060 210 860 -17 m 554 169 b 857 490 731 169 857 308 b 554 804 857 674 729 804 b 251 490 381 804 251 674 b 554 169 251 308 379 169 "},"Ŏ":{"ha":1108,"x_min":0,"x_max":0,"o":"m 557 1063 b 358 1251 424 1063 358 1146 l 492 1251 b 557 1183 492 1214 511 1183 b 621 1251 599 1183 621 1215 l 753 1251 b 557 1063 753 1146 688 1063 m 554 -17 b 50 490 249 -17 50 210 b 554 990 50 753 249 990 b 1060 490 860 990 1060 753 b 554 -17 1060 210 860 -17 m 554 169 b 857 490 731 169 857 308 b 554 804 857 674 729 804 b 251 490 381 804 251 674 b 554 169 251 308 379 169 "},"Ǒ":{"ha":1108,"x_min":0,"x_max":0,"o":"m 647 1068 l 456 1068 l 338 1253 l 489 1253 l 553 1182 l 617 1253 l 767 1253 m 554 990 b 1060 490 860 990 1060 753 b 554 -17 1060 210 860 -17 b 50 490 249 -17 50 210 b 554 990 50 753 249 990 m 554 169 b 857 490 731 169 857 308 b 554 804 857 674 729 804 b 251 490 381 804 251 674 b 554 169 251 308 379 169 "},"Ô":{"ha":1108,"x_min":0,"x_max":0,"o":"m 553 1139 l 489 1068 l 338 1068 l 456 1253 l 647 1253 l 767 1068 l 617 1068 m 554 990 b 1060 490 860 990 1060 753 b 554 -17 1060 210 860 -17 b 50 490 249 -17 50 210 b 554 990 50 753 249 990 m 554 169 b 857 490 731 169 857 308 b 554 804 857 674 729 804 b 251 490 381 804 251 674 b 554 169 251 308 379 169 "},"Ö":{"ha":1108,"x_min":0,"x_max":0,"o":"m 426 1058 b 329 1158 371 1058 329 1101 b 426 1256 329 1213 371 1256 b 528 1158 488 1256 528 1213 b 426 1058 528 1101 488 1058 m 683 1058 b 585 1158 625 1058 585 1101 b 683 1256 585 1213 625 1256 b 785 1158 742 1256 785 1213 b 683 1058 783 1101 742 1058 m 554 -17 b 50 490 249 -17 50 210 b 554 990 50 753 249 990 b 1060 490 860 990 1060 753 b 554 -17 1060 210 860 -17 m 554 169 b 857 490 731 169 857 308 b 554 804 857 674 729 804 b 251 490 381 804 251 674 b 554 169 251 308 379 169 "},"Ò":{"ha":1108,"x_min":0,"x_max":0,"o":"m 661 1069 l 524 1069 l 406 1254 l 597 1254 m 554 -17 b 50 490 249 -17 50 210 b 554 990 50 753 249 990 b 1060 490 860 990 1060 753 b 554 -17 1060 210 860 -17 m 554 169 b 857 490 731 169 857 308 b 554 804 857 674 729 804 b 251 490 381 804 251 674 b 554 169 251 308 379 169 "},"Ő":{"ha":1108,"x_min":0,"x_max":0,"o":"m 478 1069 l 540 1254 l 726 1254 l 625 1069 m 554 990 b 1060 490 860 990 1060 753 b 554 -17 1060 210 860 -17 b 50 490 249 -17 50 210 b 554 990 50 753 249 990 m 554 169 b 857 490 731 169 857 308 b 554 804 857 674 729 804 b 251 490 381 804 251 674 b 554 169 251 308 379 169 "},"Ō":{"ha":1108,"x_min":0,"x_max":0,"o":"m 372 1100 l 372 1242 l 744 1242 l 744 1100 m 554 -17 b 50 490 249 -17 50 210 b 554 990 50 753 249 990 b 1060 490 860 990 1060 753 b 554 -17 1060 210 860 -17 m 554 169 b 857 490 731 169 857 308 b 554 804 857 674 729 804 b 251 490 381 804 251 674 b 554 169 251 308 379 169 "},"Ø":{"ha":1108,"x_min":0,"x_max":0,"o":"m 919 842 b 1060 490 1008 749 1060 622 b 554 -17 1060 210 860 -17 b 319 35 467 -17 388 1 l 256 -51 l 126 43 l 190 129 b 50 490 100 221 50 349 b 554 990 50 753 249 990 b 790 936 642 990 721 971 l 856 1025 l 985 929 m 251 490 b 311 293 251 415 274 347 l 675 781 b 554 804 638 796 597 804 b 251 490 381 804 251 674 m 554 169 b 857 490 731 169 857 308 b 800 681 857 564 836 629 l 438 193 b 554 169 472 178 513 169 "},"Õ":{"ha":1108,"x_min":0,"x_max":0,"o":"m 646 1083 b 574 1099 617 1083 596 1090 l 515 1124 b 485 1132 501 1129 494 1132 b 456 1101 468 1132 456 1121 l 456 1085 l 340 1085 l 340 1131 b 468 1261 340 1213 394 1261 b 538 1246 492 1261 515 1254 l 592 1222 b 631 1213 607 1217 618 1213 b 660 1243 646 1213 660 1225 l 660 1260 l 774 1260 l 774 1214 b 646 1083 774 1132 719 1083 m 554 -17 b 50 490 249 -17 50 210 b 554 990 50 753 249 990 b 1060 490 860 990 1060 753 b 554 -17 1060 210 860 -17 m 554 169 b 857 490 731 169 857 308 b 554 804 857 674 729 804 b 251 490 381 804 251 674 b 554 169 251 308 379 169 "},"Œ":{"ha":1457,"x_min":0,"x_max":0,"o":"m 1388 176 l 1388 0 l 692 0 b 554 -17 649 -11 603 -17 b 50 490 249 -17 50 210 b 554 990 50 753 249 990 b 694 972 604 990 651 983 l 1374 972 l 1374 799 l 956 799 b 1051 581 1004 735 1038 660 l 1328 581 l 1328 410 l 1054 410 b 960 176 1042 322 1010 243 m 251 490 b 554 169 251 308 379 169 b 857 490 731 169 857 308 b 554 804 857 674 729 804 b 251 490 381 804 251 674 "},"P":{"ha":781,"x_min":0,"x_max":0,"o":"m 108 0 l 108 972 l 433 972 b 738 678 589 972 738 851 b 433 376 738 486 589 376 l 289 376 l 290 0 m 290 551 l 414 551 b 544 676 493 551 544 603 b 414 799 544 742 493 799 l 290 799 "},"Þ":{"ha":781,"x_min":0,"x_max":0,"o":"m 433 801 b 738 506 589 801 738 681 b 433 204 738 315 589 204 l 290 204 l 290 0 l 108 0 l 108 972 l 290 972 l 290 801 m 414 381 b 544 506 493 381 544 431 b 414 626 544 571 493 626 l 290 626 l 290 381 "},"Q":{"ha":1124,"x_min":0,"x_max":0,"o":"m 1074 0 l 843 0 l 806 43 b 554 -17 733 6 649 -17 b 50 490 249 -17 50 210 b 554 990 50 753 249 990 b 1060 490 860 990 1060 753 b 942 154 1060 361 1017 243 m 554 169 b 674 193 597 169 638 178 l 539 346 l 683 456 l 808 310 b 857 490 839 361 857 422 b 554 804 857 674 729 804 b 251 490 381 804 251 674 b 554 169 251 308 379 169 "},"R":{"ha":828,"x_min":0,"x_max":0,"o":"m 822 0 l 607 0 l 369 376 l 289 376 l 290 0 l 108 0 l 108 972 l 433 972 b 738 678 589 972 738 851 b 554 400 738 538 658 442 m 290 799 l 290 551 l 414 551 b 544 676 493 551 544 603 b 414 799 544 742 493 799 "},"Ŕ":{"ha":828,"x_min":0,"x_max":0,"o":"m 313 1069 l 376 1254 l 568 1254 l 450 1069 m 822 0 l 607 0 l 369 376 l 289 376 l 290 0 l 108 0 l 108 972 l 433 972 b 738 678 589 972 738 851 b 554 400 738 538 658 442 m 290 799 l 290 551 l 414 551 b 544 676 493 551 544 603 b 414 799 544 742 493 799 "},"Ř":{"ha":828,"x_min":0,"x_max":0,"o":"m 471 1068 l 279 1068 l 161 1253 l 313 1253 l 376 1182 l 440 1253 l 590 1253 m 822 0 l 607 0 l 369 376 l 289 376 l 290 0 l 108 0 l 108 972 l 433 972 b 738 678 589 972 738 851 b 554 400 738 538 658 442 m 414 551 b 544 676 493 551 544 603 b 414 799 544 742 493 799 l 290 799 l 290 551 "},"Ŗ":{"ha":828,"x_min":0,"x_max":0,"o":"m 822 0 l 607 0 l 369 376 l 289 376 l 290 0 l 108 0 l 108 972 l 433 972 b 738 678 589 972 738 851 b 554 400 738 538 658 442 m 414 551 b 544 676 493 551 544 603 b 414 799 544 742 493 799 l 290 799 l 290 551 m 440 -74 b 538 -175 493 -74 538 -110 l 538 -243 b 408 -358 538 -322 479 -358 l 358 -358 l 358 -276 l 408 -276 b 451 -237 436 -276 451 -262 l 451 -233 l 436 -233 b 354 -156 388 -233 354 -199 b 440 -74 354 -108 393 -74 "},"S":{"ha":703,"x_min":0,"x_max":0,"o":"m 349 -18 b 47 196 178 -18 78 89 l 222 265 b 343 168 240 203 292 168 b 456 271 407 168 456 206 b 372 381 456 319 424 351 l 254 444 b 71 719 158 496 71 572 b 368 990 71 872 190 990 b 621 846 472 990 567 942 l 463 746 b 364 813 449 781 417 813 b 267 719 308 813 267 772 b 346 606 267 668 296 633 l 467 544 b 657 275 576 489 657 407 b 349 -18 657 114 543 -18 "},"Ś":{"ha":703,"x_min":0,"x_max":0,"o":"m 271 1068 l 335 1253 l 528 1253 l 410 1068 m 349 -18 b 47 196 178 -18 78 89 l 222 265 b 343 168 240 203 292 168 b 456 271 407 168 456 206 b 372 381 456 319 424 351 l 254 444 b 71 719 158 496 71 572 b 368 990 71 872 190 990 b 621 846 472 990 567 942 l 463 746 b 364 813 449 781 417 813 b 267 719 308 813 267 772 b 346 606 267 668 296 633 l 467 544 b 657 275 576 489 657 407 b 349 -18 657 114 543 -18 "},"Š":{"ha":703,"x_min":0,"x_max":0,"o":"m 450 1068 l 258 1068 l 140 1253 l 292 1253 l 356 1182 l 419 1253 l 569 1253 m 467 544 b 657 275 576 489 657 407 b 349 -18 657 114 543 -18 b 47 196 178 -18 78 89 l 222 265 b 343 168 240 203 292 168 b 456 271 407 168 456 206 b 372 381 456 319 424 351 l 254 444 b 71 719 158 496 71 572 b 368 990 71 872 190 990 b 621 846 472 990 567 942 l 463 746 b 364 813 449 781 417 813 b 267 719 308 813 267 772 b 346 606 267 668 296 633 "},"Ş":{"ha":703,"x_min":0,"x_max":0,"o":"m 657 275 b 388 -17 657 125 558 0 l 379 -47 l 392 -47 b 518 -176 469 -47 518 -107 b 383 -310 518 -254 458 -310 l 257 -310 l 257 -215 l 363 -215 b 407 -175 389 -215 407 -199 b 363 -137 407 -151 389 -137 l 269 -137 l 293 -14 b 47 196 156 6 75 101 l 222 265 b 343 168 240 203 292 168 b 456 271 407 168 456 206 b 372 381 456 319 424 351 l 254 444 b 71 719 158 496 71 572 b 368 990 71 872 190 990 b 621 846 472 990 567 942 l 463 746 b 364 813 449 781 417 813 b 267 719 308 813 267 772 b 346 606 267 668 296 633 l 467 544 b 657 275 576 489 657 407 "},"Ŝ":{"ha":703,"x_min":0,"x_max":0,"o":"m 357 1139 l 293 1068 l 142 1068 l 260 1253 l 451 1253 l 571 1068 l 421 1068 m 467 544 b 657 275 576 489 657 407 b 349 -18 657 114 543 -18 b 47 196 178 -18 78 89 l 222 265 b 343 168 240 203 292 168 b 456 271 407 168 456 206 b 372 381 456 319 424 351 l 254 444 b 71 719 158 496 71 572 b 368 990 71 872 190 990 b 621 846 472 990 567 942 l 463 746 b 364 813 449 781 417 813 b 267 719 308 813 267 772 b 346 606 267 668 296 633 "},"Ș":{"ha":703,"x_min":0,"x_max":0,"o":"m 467 544 b 657 275 576 489 657 407 b 349 -18 657 114 543 -18 b 47 196 178 -18 78 89 l 222 265 b 343 168 240 203 292 168 b 456 271 407 168 456 206 b 372 381 456 319 424 351 l 254 444 b 71 719 158 496 71 572 b 368 990 71 872 190 990 b 621 846 472 990 567 942 l 463 746 b 364 813 449 781 417 813 b 267 719 308 813 267 772 b 346 606 267 668 296 633 m 368 -74 b 465 -175 421 -74 465 -110 l 465 -243 b 336 -358 465 -322 407 -358 l 286 -358 l 286 -276 l 336 -276 b 381 -237 364 -276 381 -262 l 381 -233 l 364 -233 b 282 -156 315 -233 282 -199 b 368 -74 282 -108 321 -74 "},"ẞ":{"ha":1078,"x_min":0,"x_max":0,"o":"m 846 542 b 1033 275 958 486 1033 406 b 724 -18 1033 114 919 -18 b 424 196 553 -18 454 89 l 599 265 b 719 168 615 203 668 168 b 831 268 781 168 831 203 b 749 378 831 318 799 350 l 617 443 b 447 668 519 492 447 560 b 504 803 447 728 475 775 l 422 803 b 294 669 339 803 294 750 l 294 0 l 108 0 l 108 679 b 411 972 108 840 207 972 l 725 972 l 725 800 b 649 703 681 790 649 750 b 744 592 649 647 688 619 "},"T":{"ha":746,"x_min":0,"x_max":0,"o":"m 467 0 l 281 0 l 281 797 l 49 797 l 49 972 l 699 972 l 699 797 l 467 797 "},"Ŧ":{"ha":746,"x_min":0,"x_max":0,"o":"m 699 797 l 467 797 l 467 574 l 644 574 l 644 410 l 467 410 l 467 0 l 281 0 l 281 410 l 100 410 l 100 574 l 281 574 l 281 797 l 49 797 l 49 972 l 699 972 "},"Ť":{"ha":746,"x_min":0,"x_max":0,"o":"m 472 1068 l 281 1068 l 163 1253 l 314 1253 l 378 1182 l 442 1253 l 592 1253 m 49 972 l 699 972 l 699 797 l 467 797 l 467 0 l 281 0 l 281 797 l 49 797 "},"Ţ":{"ha":746,"x_min":0,"x_max":0,"o":"m 467 0 l 413 0 l 400 -47 l 413 -47 b 539 -176 490 -47 539 -107 b 404 -310 539 -254 479 -310 l 278 -310 l 278 -215 l 383 -215 b 428 -175 410 -215 428 -199 b 383 -137 428 -151 410 -137 l 290 -137 l 317 0 l 281 0 l 281 797 l 49 797 l 49 972 l 699 972 l 699 797 l 467 797 "},"Ț":{"ha":746,"x_min":0,"x_max":0,"o":"m 49 972 l 699 972 l 699 797 l 467 797 l 467 0 l 281 0 l 281 797 l 49 797 m 367 -74 b 464 -175 419 -74 464 -110 l 464 -243 b 335 -358 464 -322 406 -358 l 285 -358 l 285 -276 l 335 -276 b 378 -237 363 -276 378 -262 l 378 -233 l 363 -233 b 281 -156 314 -233 281 -199 b 367 -74 281 -108 319 -74 "},"U":{"ha":876,"x_min":0,"x_max":0,"o":"m 438 -18 b 97 318 275 -18 97 81 l 97 972 l 283 972 l 283 325 b 438 161 283 228 335 161 b 593 325 540 161 593 228 l 593 972 l 779 972 l 779 318 b 438 -18 779 81 601 -18 "},"Ú":{"ha":876,"x_min":0,"x_max":0,"o":"m 351 1068 l 415 1253 l 608 1253 l 490 1068 m 438 -18 b 97 318 275 -18 97 81 l 97 972 l 283 972 l 283 325 b 438 161 283 228 335 161 b 593 325 540 161 593 228 l 593 972 l 779 972 l 779 318 b 438 -18 779 81 601 -18 "},"Ŭ":{"ha":876,"x_min":0,"x_max":0,"o":"m 442 1063 b 243 1251 308 1063 243 1146 l 376 1251 b 442 1183 376 1214 396 1183 b 506 1251 483 1183 506 1215 l 638 1251 b 442 1063 638 1146 572 1063 m 438 -18 b 97 318 275 -18 97 81 l 97 972 l 283 972 l 283 325 b 438 161 283 228 335 161 b 593 325 540 161 593 228 l 593 972 l 779 972 l 779 318 b 438 -18 779 81 601 -18 "},"Û":{"ha":876,"x_min":0,"x_max":0,"o":"m 438 1139 l 374 1068 l 222 1068 l 340 1253 l 532 1253 l 651 1068 l 501 1068 m 593 972 l 779 972 l 779 318 b 438 -18 779 81 601 -18 b 97 318 275 -18 97 81 l 97 972 l 283 972 l 283 325 b 438 161 283 228 335 161 b 593 325 540 161 593 228 "},"Ü":{"ha":876,"x_min":0,"x_max":0,"o":"m 310 1058 b 213 1158 254 1058 213 1101 b 310 1256 213 1213 254 1256 b 411 1158 371 1256 411 1213 b 310 1058 411 1101 371 1058 m 567 1058 b 468 1158 508 1058 468 1101 b 567 1256 468 1213 508 1256 b 668 1158 625 1256 668 1213 b 567 1058 667 1101 625 1058 m 438 -18 b 97 318 275 -18 97 81 l 97 972 l 283 972 l 283 325 b 438 161 283 228 335 161 b 593 325 540 161 593 228 l 593 972 l 779 972 l 779 318 b 438 -18 779 81 601 -18 "},"Ù":{"ha":876,"x_min":0,"x_max":0,"o":"m 528 1068 l 389 1068 l 271 1253 l 464 1253 m 438 -18 b 97 318 275 -18 97 81 l 97 972 l 283 972 l 283 325 b 438 161 283 228 335 161 b 593 325 540 161 593 228 l 593 972 l 779 972 l 779 318 b 438 -18 779 81 601 -18 "},"Ű":{"ha":876,"x_min":0,"x_max":0,"o":"m 364 1069 l 426 1254 l 613 1254 l 511 1069 m 593 972 l 779 972 l 779 318 b 438 -18 779 81 601 -18 b 97 318 275 -18 97 81 l 97 972 l 283 972 l 283 325 b 438 161 283 228 335 161 b 593 325 540 161 593 228 "},"Ū":{"ha":876,"x_min":0,"x_max":0,"o":"m 256 1100 l 256 1242 l 628 1242 l 628 1100 m 438 -18 b 97 318 275 -18 97 81 l 97 972 l 283 972 l 283 325 b 438 161 283 228 335 161 b 593 325 540 161 593 228 l 593 972 l 779 972 l 779 318 b 438 -18 779 81 601 -18 "},"Ų":{"ha":876,"x_min":0,"x_max":0,"o":"m 593 972 l 779 972 l 779 318 b 547 -3 779 133 672 33 l 447 -99 b 425 -142 436 -110 425 -122 b 479 -187 425 -169 447 -187 l 550 -187 l 550 -310 l 433 -310 b 278 -167 349 -310 278 -258 b 350 -31 278 -111 304 -71 l 369 -12 b 97 318 229 13 97 114 l 97 972 l 283 972 l 283 325 b 438 161 283 228 335 161 b 593 325 540 161 593 228 "},"Ů":{"ha":876,"x_min":0,"x_max":0,"o":"m 439 1028 b 294 1167 357 1028 294 1089 b 438 1303 294 1246 357 1303 b 583 1168 522 1303 583 1246 b 439 1028 583 1089 521 1028 m 439 1111 b 494 1168 472 1111 494 1135 b 438 1221 494 1199 472 1221 b 383 1167 407 1221 383 1199 b 439 1111 383 1135 407 1111 m 438 -18 b 97 318 275 -18 97 81 l 97 972 l 283 972 l 283 325 b 438 161 283 228 335 161 b 593 325 540 161 593 228 l 593 972 l 779 972 l 779 318 b 438 -18 779 81 601 -18 "},"Ũ":{"ha":876,"x_min":0,"x_max":0,"o":"m 531 1083 b 458 1099 501 1083 481 1090 l 400 1124 b 369 1132 386 1129 379 1132 b 340 1101 353 1132 340 1121 l 340 1085 l 225 1085 l 225 1131 b 353 1261 225 1213 279 1261 b 422 1246 376 1261 400 1254 l 476 1222 b 515 1213 492 1217 503 1213 b 544 1243 531 1213 544 1225 l 544 1260 l 658 1260 l 658 1214 b 531 1083 658 1132 604 1083 m 438 -18 b 97 318 275 -18 97 81 l 97 972 l 283 972 l 283 325 b 438 161 283 228 335 161 b 593 325 540 161 593 228 l 593 972 l 779 972 l 779 318 b 438 -18 779 81 601 -18 "},"V":{"ha":761,"x_min":0,"x_max":0,"o":"m 554 972 l 746 972 l 486 0 l 276 0 l 17 972 l 207 972 l 381 250 "},"W":{"ha":1022,"x_min":0,"x_max":0,"o":"m 803 0 l 640 0 l 513 581 l 382 0 l 219 0 l 17 972 l 207 972 l 308 403 l 436 972 l 586 972 l 714 403 l 817 972 l 1006 972 "},"Ẃ":{"ha":1033,"x_min":0,"x_max":0,"o":"m 431 1069 l 494 1254 l 688 1254 l 568 1069 m 382 0 l 219 0 l 17 972 l 207 972 l 308 403 l 436 972 l 586 972 l 714 403 l 817 972 l 1006 972 l 803 0 l 640 0 l 513 581 "},"Ŵ":{"ha":1022,"x_min":0,"x_max":0,"o":"m 507 1139 l 443 1068 l 292 1068 l 410 1253 l 601 1253 l 721 1068 l 571 1068 m 817 972 l 1006 972 l 803 0 l 640 0 l 513 581 l 382 0 l 219 0 l 17 972 l 207 972 l 308 403 l 436 972 l 586 972 l 714 403 "},"Ẅ":{"ha":1022,"x_min":0,"x_max":0,"o":"m 381 1058 b 283 1158 325 1058 283 1101 b 381 1256 283 1213 325 1256 b 482 1158 442 1256 482 1213 b 381 1058 482 1101 442 1058 m 638 1058 b 539 1158 579 1058 539 1101 b 638 1256 539 1213 579 1256 b 739 1158 696 1256 739 1213 b 638 1058 738 1101 696 1058 m 640 0 l 513 581 l 382 0 l 219 0 l 17 972 l 207 972 l 308 403 l 436 972 l 586 972 l 714 403 l 817 972 l 1006 972 l 803 0 "},"Ẁ":{"ha":1022,"x_min":0,"x_max":0,"o":"m 599 1068 l 460 1068 l 342 1253 l 535 1253 m 803 0 l 640 0 l 513 581 l 382 0 l 219 0 l 17 972 l 207 972 l 308 403 l 436 972 l 586 972 l 714 403 l 817 972 l 1006 972 "},"X":{"ha":729,"x_min":0,"x_max":0,"o":"m 3 0 l 247 501 l 29 972 l 228 972 l 364 658 l 501 972 l 700 972 l 482 501 l 726 0 l 529 0 l 364 351 l 200 0 "},"Y":{"ha":849,"x_min":0,"x_max":0,"o":"m 317 356 l 17 972 l 228 972 l 418 560 l 625 972 l 833 972 l 343 0 l 133 0 "},"Ý":{"ha":849,"x_min":0,"x_max":0,"o":"m 338 1068 l 401 1253 l 594 1253 l 476 1068 m 418 560 l 625 972 l 833 972 l 343 0 l 133 0 l 317 356 l 17 972 l 228 972 "},"Ŷ":{"ha":849,"x_min":0,"x_max":0,"o":"m 424 1139 l 360 1068 l 208 1068 l 326 1253 l 518 1253 l 638 1068 l 488 1068 m 625 972 l 833 972 l 343 0 l 133 0 l 317 356 l 17 972 l 228 972 l 418 560 "},"Ÿ":{"ha":849,"x_min":0,"x_max":0,"o":"m 296 1058 b 199 1158 240 1058 199 1101 b 296 1256 199 1213 240 1256 b 397 1158 357 1256 397 1213 b 296 1058 397 1101 357 1058 m 553 1058 b 454 1158 494 1058 454 1101 b 553 1256 454 1213 494 1256 b 654 1158 611 1256 654 1213 b 553 1058 653 1101 611 1058 m 17 972 l 228 972 l 418 560 l 625 972 l 833 972 l 343 0 l 133 0 l 317 356 "},"Ỳ":{"ha":849,"x_min":0,"x_max":0,"o":"m 514 1068 l 375 1068 l 257 1253 l 450 1253 m 317 356 l 17 972 l 228 972 l 418 560 l 625 972 l 833 972 l 343 0 l 133 0 "},"Z":{"ha":814,"x_min":0,"x_max":0,"o":"m 517 800 l 76 800 l 76 972 l 761 972 l 761 814 l 294 174 l 758 174 l 758 0 l 53 0 l 53 161 "},"Ź":{"ha":814,"x_min":0,"x_max":0,"o":"m 335 1068 l 399 1253 l 592 1253 l 474 1068 m 76 972 l 761 972 l 761 814 l 294 174 l 758 174 l 758 0 l 53 0 l 53 161 l 517 800 l 76 800 "},"Ž":{"ha":814,"x_min":0,"x_max":0,"o":"m 514 1068 l 322 1068 l 204 1253 l 356 1253 l 419 1182 l 483 1253 l 633 1253 m 761 972 l 761 814 l 294 174 l 758 174 l 758 0 l 53 0 l 53 161 l 517 800 l 76 800 l 76 972 "},"Ż":{"ha":814,"x_min":0,"x_max":0,"o":"m 424 1057 b 321 1164 364 1057 321 1104 b 424 1267 321 1221 364 1267 b 531 1164 488 1267 531 1221 b 424 1057 531 1104 488 1057 m 517 800 l 76 800 l 76 972 l 761 972 l 761 814 l 294 174 l 758 174 l 758 0 l 53 0 l 53 161 "},"a":{"ha":792,"x_min":0,"x_max":0,"o":"m 550 653 l 724 653 l 724 0 l 553 0 l 553 21 b 389 -17 504 -4 449 -17 b 44 328 199 -17 44 126 b 389 669 44 526 199 669 b 550 629 449 669 503 656 m 400 146 b 550 219 467 146 521 179 l 550 432 b 400 507 521 472 465 507 b 219 328 296 507 219 429 b 400 146 219 222 296 146 "},"á":{"ha":792,"x_min":0,"x_max":0,"o":"m 326 769 l 399 968 l 592 968 l 465 769 m 550 653 l 724 653 l 724 0 l 553 0 l 553 21 b 389 -17 504 -4 449 -17 b 44 328 199 -17 44 126 b 389 669 44 526 199 669 b 550 629 449 669 503 656 m 400 146 b 550 219 467 146 521 179 l 550 432 b 400 507 521 472 465 507 b 219 328 296 507 219 429 b 400 146 219 222 296 146 "},"ă":{"ha":792,"x_min":0,"x_max":0,"o":"m 413 761 b 214 958 279 761 214 847 l 347 958 b 413 882 347 914 367 882 b 476 958 454 882 476 915 l 608 958 b 413 761 608 847 543 761 m 550 653 l 724 653 l 724 0 l 553 0 l 553 21 b 389 -17 504 -4 449 -17 b 44 328 199 -17 44 126 b 389 669 44 526 199 669 b 550 629 449 669 503 656 m 400 146 b 550 219 467 146 521 179 l 550 432 b 400 507 521 472 465 507 b 219 328 296 507 219 429 b 400 146 219 222 296 146 "},"ǎ":{"ha":792,"x_min":0,"x_max":0,"o":"m 508 771 l 317 771 l 188 961 l 339 961 l 414 882 l 489 961 l 638 961 m 550 653 l 724 653 l 724 0 l 553 0 l 553 21 b 389 -17 504 -4 449 -17 b 44 328 199 -17 44 126 b 389 669 44 526 199 669 b 550 629 449 669 503 656 m 550 432 b 400 507 521 472 465 507 b 219 328 296 507 219 429 b 400 146 219 222 296 146 b 550 219 467 146 521 179 "},"â":{"ha":792,"x_min":0,"x_max":0,"o":"m 414 850 l 339 771 l 188 771 l 317 961 l 508 961 l 638 771 l 489 771 m 550 653 l 724 653 l 724 0 l 553 0 l 553 21 b 389 -17 504 -4 449 -17 b 44 328 199 -17 44 126 b 389 669 44 526 199 669 b 550 629 449 669 503 656 m 550 432 b 400 507 521 472 465 507 b 219 328 296 507 219 429 b 400 146 219 222 296 146 b 550 219 467 146 521 179 "},"ä":{"ha":792,"x_min":0,"x_max":0,"o":"m 278 769 b 181 869 222 769 181 813 b 278 967 181 924 222 967 b 379 869 339 967 379 924 b 278 769 379 813 339 769 m 539 769 b 440 869 482 769 440 813 b 539 967 440 924 482 967 b 640 869 597 967 640 924 b 539 769 640 813 597 769 m 550 653 l 724 653 l 724 0 l 553 0 l 553 21 b 389 -17 504 -4 449 -17 b 44 328 199 -17 44 126 b 389 669 44 526 199 669 b 550 629 449 669 503 656 m 400 146 b 550 219 467 146 521 179 l 550 432 b 400 507 521 472 465 507 b 219 328 296 507 219 429 b 400 146 219 222 296 146 "},"à":{"ha":792,"x_min":0,"x_max":0,"o":"m 486 769 l 347 769 l 221 968 l 414 968 m 550 653 l 724 653 l 724 0 l 553 0 l 553 21 b 389 -17 504 -4 449 -17 b 44 328 199 -17 44 126 b 389 669 44 526 199 669 b 550 629 449 669 503 656 m 400 146 b 550 219 467 146 521 179 l 550 432 b 400 507 521 472 465 507 b 219 328 296 507 219 429 b 400 146 219 222 296 146 "},"ā":{"ha":792,"x_min":0,"x_max":0,"o":"m 222 799 l 222 940 l 594 940 l 594 799 m 550 653 l 724 653 l 724 0 l 553 0 l 553 21 b 389 -17 504 -4 449 -17 b 44 328 199 -17 44 126 b 389 669 44 526 199 669 b 550 629 449 669 503 656 m 400 146 b 550 219 467 146 521 179 l 550 432 b 400 507 521 472 465 507 b 219 328 296 507 219 429 b 400 146 219 222 296 146 "},"ą":{"ha":792,"x_min":0,"x_max":0,"o":"m 600 -142 b 654 -187 600 -169 622 -187 l 725 -187 l 725 -310 l 608 -310 b 453 -167 524 -310 453 -258 b 525 -31 453 -111 479 -71 l 557 0 l 553 0 l 553 21 b 389 -17 504 -4 449 -17 b 44 328 199 -17 44 126 b 389 669 44 526 199 669 b 550 629 449 669 503 656 l 550 653 l 724 653 l 724 1 l 725 0 l 622 -99 b 600 -142 611 -110 600 -122 m 550 432 b 400 507 521 472 465 507 b 219 328 296 507 219 429 b 400 146 219 222 296 146 b 550 219 467 146 521 179 "},"å":{"ha":792,"x_min":0,"x_max":0,"o":"m 411 726 b 267 864 329 726 267 786 b 410 1000 267 943 329 1000 b 556 865 494 1000 556 943 b 411 726 556 786 493 726 m 411 808 b 467 865 444 808 467 832 b 410 919 467 896 444 919 b 356 864 379 919 356 896 b 411 808 356 832 379 808 m 550 653 l 724 653 l 724 0 l 553 0 l 553 21 b 389 -17 504 -4 449 -17 b 44 328 199 -17 44 126 b 389 669 44 526 199 669 b 550 629 449 669 503 656 m 400 146 b 550 219 467 146 521 179 l 550 432 b 400 507 521 472 465 507 b 219 328 296 507 219 429 b 400 146 219 222 296 146 "},"ã":{"ha":792,"x_min":0,"x_max":0,"o":"m 493 781 b 421 797 464 781 443 788 l 363 821 b 332 829 349 826 342 829 b 303 800 315 829 303 818 l 303 782 l 188 782 l 188 828 b 315 960 188 911 242 960 b 385 943 339 960 363 953 l 439 921 b 478 911 454 914 465 911 b 507 940 493 911 507 922 l 507 958 l 621 958 l 621 911 b 493 781 621 829 567 781 m 550 653 l 724 653 l 724 0 l 553 0 l 553 21 b 389 -17 504 -4 449 -17 b 44 328 199 -17 44 126 b 389 669 44 526 199 669 b 550 629 449 669 503 656 m 400 146 b 550 219 467 146 521 179 l 550 432 b 400 507 521 472 465 507 b 219 328 296 507 219 429 b 400 146 219 222 296 146 "},"æ":{"ha":1228,"x_min":0,"x_max":0,"o":"m 1183 315 b 1181 267 1183 301 1182 274 l 668 267 b 839 138 689 186 754 138 b 1000 214 904 138 969 171 l 1129 122 b 836 -17 1069 40 963 -17 b 611 58 746 -17 669 11 b 322 -17 556 21 453 -17 b 44 199 147 -17 44 68 b 283 400 44 324 144 400 l 489 400 l 489 414 b 357 522 489 469 443 522 b 238 444 279 522 244 479 l 67 444 b 364 669 82 563 174 669 b 592 575 479 669 547 625 b 836 669 651 635 735 669 b 1183 315 1043 669 1183 514 m 1001 397 b 835 519 985 465 919 519 b 668 397 751 519 690 468 m 221 200 b 333 128 221 156 261 128 b 524 171 401 128 467 143 b 497 263 511 199 501 231 l 296 263 b 221 200 250 263 221 236 "},"b":{"ha":794,"x_min":0,"x_max":0,"o":"m 404 -17 b 240 21 346 -17 289 -4 l 240 0 l 69 0 l 69 972 l 243 972 l 243 629 b 404 669 292 656 346 669 b 750 328 596 669 750 526 b 404 -17 750 126 596 -17 m 394 146 b 575 328 497 146 575 222 b 394 507 575 429 499 507 b 243 432 329 507 274 475 l 243 219 b 394 146 274 178 328 146 "},"c":{"ha":715,"x_min":0,"x_max":0,"o":"m 406 -17 b 44 326 193 -17 44 133 b 407 669 44 521 199 669 b 665 571 518 669 608 625 l 556 443 b 406 503 526 472 472 503 b 225 326 299 503 225 424 b 406 151 225 225 303 150 b 563 214 468 151 524 175 l 675 93 b 406 -17 613 29 518 -17 "},"ć":{"ha":718,"x_min":0,"x_max":0,"o":"m 306 769 l 378 969 l 571 969 l 443 769 m 406 -17 b 44 326 193 -17 44 133 b 407 669 44 521 199 669 b 665 571 518 669 608 625 l 556 443 b 406 503 526 472 472 503 b 225 326 299 503 225 424 b 406 151 225 225 303 150 b 563 214 468 151 524 175 l 675 93 b 406 -17 613 29 518 -17 "},"č":{"ha":715,"x_min":0,"x_max":0,"o":"m 489 771 l 297 771 l 168 961 l 319 961 l 394 882 l 469 961 l 618 961 m 675 93 b 406 -17 613 29 518 -17 b 44 326 193 -17 44 133 b 407 669 44 521 199 669 b 665 571 518 669 608 625 l 556 443 b 406 503 526 472 472 503 b 225 326 299 503 225 424 b 406 151 225 225 303 150 b 563 214 468 151 524 175 "},"ç":{"ha":715,"x_min":0,"x_max":0,"o":"m 675 93 b 432 -15 617 35 532 -10 l 424 -47 l 436 -47 b 563 -176 514 -47 563 -107 b 428 -310 563 -254 503 -310 l 301 -310 l 301 -215 l 407 -215 b 451 -175 433 -215 451 -199 b 407 -137 451 -151 433 -137 l 314 -137 l 339 -11 b 44 326 163 17 44 154 b 407 669 44 521 199 669 b 665 571 518 669 608 625 l 556 443 b 406 503 526 472 472 503 b 225 326 299 503 225 424 b 406 151 225 225 303 150 b 563 214 468 151 524 175 "},"ĉ":{"ha":715,"x_min":0,"x_max":0,"o":"m 393 850 l 318 771 l 167 771 l 296 961 l 488 961 l 617 771 l 468 771 m 675 93 b 406 -17 613 29 518 -17 b 44 326 193 -17 44 133 b 407 669 44 521 199 669 b 665 571 518 669 608 625 l 556 443 b 406 503 526 472 472 503 b 225 326 299 503 225 424 b 406 151 225 225 303 150 b 563 214 468 151 524 175 "},"ċ":{"ha":718,"x_min":0,"x_max":0,"o":"m 399 767 b 293 875 339 767 293 813 b 399 979 293 932 339 979 b 508 875 465 979 508 932 b 399 767 508 813 465 767 m 406 -17 b 44 326 193 -17 44 133 b 407 669 44 521 199 669 b 665 571 518 669 608 625 l 556 443 b 406 503 526 472 472 503 b 225 326 299 503 225 424 b 406 151 225 225 303 150 b 563 214 468 151 524 175 l 675 93 b 406 -17 613 29 518 -17 "},"d":{"ha":794,"x_min":0,"x_max":0,"o":"m 550 972 l 724 972 l 724 0 l 553 0 l 553 21 b 389 -17 504 -4 449 -17 b 44 328 199 -17 44 126 b 389 669 44 526 199 669 b 550 629 449 669 503 656 m 400 146 b 550 219 467 146 519 178 l 550 432 b 400 507 521 475 465 507 b 219 328 296 507 219 429 b 400 146 219 222 296 146 "},"ð":{"ha":833,"x_min":0,"x_max":0,"o":"m 528 856 b 763 343 660 732 763 560 b 406 -17 763 126 610 -17 b 51 325 208 -17 51 125 b 400 669 51 528 208 669 b 506 650 438 669 476 665 b 397 781 478 696 442 740 l 221 679 l 153 801 l 278 874 b 126 954 231 904 179 932 l 190 1064 b 410 950 260 1039 336 1000 l 599 1058 l 667 936 m 406 146 b 588 325 510 146 588 222 b 406 507 588 431 510 507 b 226 325 303 507 226 431 b 406 146 226 221 304 146 "},"ď":{"ha":976,"x_min":0,"x_max":0,"o":"m 550 972 l 724 972 l 724 0 l 553 0 l 553 21 b 389 -17 504 -4 449 -17 b 44 328 199 -17 44 126 b 389 669 44 526 199 669 b 550 629 449 669 503 656 m 815 711 l 815 972 l 988 972 l 940 711 m 400 146 b 550 219 467 146 519 178 l 550 432 b 400 507 521 475 465 507 b 219 328 296 507 219 429 b 400 146 219 222 296 146 "},"đ":{"ha":850,"x_min":0,"x_max":0,"o":"m 807 892 l 807 751 l 724 751 l 724 0 l 553 0 l 553 21 b 389 -17 504 -4 449 -17 b 44 328 199 -17 44 126 b 389 669 44 526 199 669 b 550 629 449 669 503 656 l 550 751 l 379 751 l 379 892 l 550 892 l 550 972 l 724 972 l 724 892 m 550 432 b 400 507 521 475 465 507 b 219 328 296 507 219 429 b 400 146 219 222 296 146 b 550 219 467 146 519 178 "},"e":{"ha":788,"x_min":0,"x_max":0,"o":"m 743 324 b 740 263 743 304 742 274 l 228 263 b 397 138 246 186 314 138 b 560 214 463 138 528 171 l 688 122 b 394 -17 628 40 521 -17 b 44 324 185 -17 44 129 b 394 669 44 525 190 669 b 743 324 603 669 743 517 m 560 397 b 394 519 544 468 479 519 b 228 397 310 519 247 467 "},"é":{"ha":788,"x_min":0,"x_max":0,"o":"m 307 769 l 378 969 l 571 969 l 444 769 m 743 324 b 740 263 743 304 742 274 l 228 263 b 397 138 246 186 314 138 b 560 214 463 138 528 171 l 688 122 b 394 -17 628 40 521 -17 b 44 324 185 -17 44 129 b 394 669 44 525 190 669 b 743 324 603 669 743 517 m 560 397 b 394 519 544 468 479 519 b 228 397 310 519 247 467 "},"ĕ":{"ha":788,"x_min":0,"x_max":0,"o":"m 396 761 b 197 958 263 761 197 847 l 331 958 b 396 882 331 914 350 882 b 460 958 438 882 460 915 l 592 958 b 396 761 592 847 526 761 m 743 324 b 740 263 743 304 742 274 l 228 263 b 397 138 246 186 314 138 b 560 214 463 138 528 171 l 688 122 b 394 -17 628 40 521 -17 b 44 324 185 -17 44 129 b 394 669 44 525 190 669 b 743 324 603 669 743 517 m 560 397 b 394 519 544 468 479 519 b 228 397 310 519 247 467 "},"ě":{"ha":788,"x_min":0,"x_max":0,"o":"m 492 771 l 300 771 l 171 961 l 322 961 l 397 882 l 472 961 l 621 961 m 743 324 b 740 263 743 304 742 274 l 228 263 b 397 138 246 186 314 138 b 560 214 463 138 528 171 l 688 122 b 394 -17 628 40 521 -17 b 44 324 185 -17 44 129 b 394 669 44 525 190 669 b 743 324 603 669 743 517 m 560 397 b 394 519 544 468 479 519 b 228 397 310 519 247 467 "},"ê":{"ha":788,"x_min":0,"x_max":0,"o":"m 397 850 l 322 771 l 171 771 l 300 961 l 492 961 l 621 771 l 472 771 m 743 324 b 740 263 743 304 742 274 l 228 263 b 397 138 246 186 314 138 b 560 214 463 138 528 171 l 688 122 b 394 -17 628 40 521 -17 b 44 324 185 -17 44 129 b 394 669 44 525 190 669 b 743 324 603 669 743 517 m 560 397 b 394 519 544 468 479 519 b 228 397 310 519 247 467 "},"ë":{"ha":788,"x_min":0,"x_max":0,"o":"m 261 769 b 164 869 206 769 164 813 b 261 967 164 924 206 967 b 363 869 322 967 363 924 b 261 769 363 813 322 769 m 522 769 b 424 869 465 769 424 813 b 522 967 424 924 465 967 b 624 869 581 967 624 924 b 522 769 624 813 581 769 m 743 324 b 740 263 743 304 742 274 l 228 263 b 397 138 246 186 314 138 b 560 214 463 138 528 171 l 688 122 b 394 -17 628 40 521 -17 b 44 324 185 -17 44 129 b 394 669 44 525 190 669 b 743 324 603 669 743 517 m 560 397 b 394 519 544 468 479 519 b 228 397 310 519 247 467 "},"ė":{"ha":788,"x_min":0,"x_max":0,"o":"m 393 749 b 286 856 332 749 286 794 b 393 960 286 914 332 960 b 503 856 458 960 503 914 b 393 749 503 794 458 749 m 743 324 b 740 263 743 304 742 274 l 228 263 b 397 138 246 186 314 138 b 560 214 463 138 528 171 l 688 122 b 394 -17 628 40 521 -17 b 44 324 185 -17 44 129 b 394 669 44 525 190 669 b 743 324 603 669 743 517 m 560 397 b 394 519 544 468 479 519 b 228 397 310 519 247 467 "},"è":{"ha":788,"x_min":0,"x_max":0,"o":"m 469 769 l 331 769 l 204 968 l 397 968 m 743 324 b 740 263 743 304 742 274 l 228 263 b 397 138 246 186 314 138 b 560 214 463 138 528 171 l 688 122 b 394 -17 628 40 521 -17 b 44 324 185 -17 44 129 b 394 669 44 525 190 669 b 743 324 603 669 743 517 m 560 397 b 394 519 544 468 479 519 b 228 397 310 519 247 467 "},"ē":{"ha":788,"x_min":0,"x_max":0,"o":"m 206 799 l 206 940 l 578 940 l 578 799 m 743 324 b 740 263 743 304 742 274 l 228 263 b 397 138 246 186 314 138 b 560 214 463 138 528 171 l 688 122 b 394 -17 628 40 521 -17 b 44 324 185 -17 44 129 b 394 669 44 525 190 669 b 743 324 603 669 743 517 m 560 397 b 394 519 544 468 479 519 b 228 397 310 519 247 467 "},"ę":{"ha":788,"x_min":0,"x_max":0,"o":"m 743 324 b 740 263 743 304 742 274 l 228 263 b 397 138 246 186 314 138 b 560 214 463 138 528 171 l 688 122 b 510 0 647 67 585 22 l 407 -99 b 385 -142 396 -110 385 -122 b 439 -187 385 -169 407 -187 l 510 -187 l 510 -310 l 393 -310 b 238 -167 308 -310 238 -258 b 310 -31 238 -111 264 -71 l 329 -11 b 44 324 156 15 44 150 b 394 669 44 525 190 669 b 743 324 603 669 743 517 m 560 397 b 394 519 544 468 479 519 b 228 397 310 519 247 467 "},"f":{"ha":438,"x_min":0,"x_max":0,"o":"m 119 0 l 119 494 l 25 494 l 25 653 l 119 653 l 119 756 b 346 989 119 885 200 989 b 467 956 397 989 446 969 l 413 804 b 361 821 401 814 383 821 b 293 750 328 821 293 800 l 293 653 l 393 653 l 393 494 l 293 494 l 293 0 "},"g":{"ha":792,"x_min":0,"x_max":0,"o":"m 553 653 l 724 653 l 724 22 b 379 -300 724 -190 554 -300 b 83 -176 251 -300 133 -233 l 178 -51 b 379 -137 235 -110 310 -139 b 550 10 474 -136 550 -83 l 550 26 b 389 -11 503 3 446 -11 b 44 331 199 -11 44 129 b 389 669 44 529 199 669 b 553 628 450 669 504 654 m 400 151 b 550 226 467 151 519 183 l 550 432 b 400 507 521 474 468 507 b 219 331 299 507 219 431 b 400 151 219 225 299 151 "},"ğ":{"ha":792,"x_min":0,"x_max":0,"o":"m 417 767 b 218 964 283 767 218 853 l 351 964 b 417 888 351 919 371 888 b 481 964 458 888 481 921 l 613 964 b 417 767 613 853 547 767 m 553 653 l 724 653 l 724 22 b 379 -300 724 -190 554 -300 b 83 -176 251 -300 133 -233 l 178 -51 b 379 -137 235 -110 310 -139 b 550 10 474 -136 550 -83 l 550 26 b 389 -11 503 3 446 -11 b 44 331 199 -11 44 129 b 389 669 44 529 199 669 b 553 628 450 669 504 654 m 400 151 b 550 226 467 151 519 183 l 550 432 b 400 507 521 474 468 507 b 219 331 299 507 219 431 b 400 151 219 225 299 151 "},"ǧ":{"ha":792,"x_min":0,"x_max":0,"o":"m 513 776 l 321 776 l 192 967 l 343 967 l 418 888 l 493 967 l 642 967 m 553 653 l 724 653 l 724 22 b 379 -300 724 -190 554 -300 b 83 -176 251 -300 133 -233 l 178 -51 b 379 -137 235 -110 310 -139 b 550 10 474 -136 550 -83 l 550 26 b 389 -11 503 3 446 -11 b 44 331 199 -11 44 129 b 389 669 44 529 199 669 b 553 628 450 669 504 654 m 550 432 b 400 507 521 474 468 507 b 219 331 299 507 219 431 b 400 151 219 225 299 151 b 550 226 467 151 519 183 "},"ĝ":{"ha":792,"x_min":0,"x_max":0,"o":"m 417 856 l 342 776 l 190 776 l 319 967 l 511 967 l 640 776 l 492 776 m 553 653 l 724 653 l 724 22 b 379 -300 724 -190 554 -300 b 83 -176 251 -300 133 -233 l 178 -51 b 379 -137 235 -110 310 -139 b 550 10 474 -136 550 -83 l 550 26 b 389 -11 503 3 446 -11 b 44 331 199 -11 44 129 b 389 669 44 529 199 669 b 553 628 450 669 504 654 m 550 432 b 400 507 521 474 468 507 b 219 331 299 507 219 431 b 400 151 219 225 299 151 b 550 226 467 151 519 183 "},"ģ":{"ha":792,"x_min":0,"x_max":0,"o":"m 418 749 b 314 858 361 749 314 788 l 314 932 b 451 1056 314 1018 376 1056 l 507 1056 l 507 969 l 451 969 b 406 926 422 969 406 954 l 406 922 l 422 922 b 511 838 475 922 511 885 b 418 749 511 786 469 749 m 553 653 l 724 653 l 724 22 b 379 -300 724 -190 554 -300 b 83 -176 251 -300 133 -233 l 178 -51 b 379 -137 235 -110 310 -139 b 550 10 474 -136 550 -83 l 550 26 b 389 -11 503 3 446 -11 b 44 331 199 -11 44 129 b 389 669 44 529 199 669 b 553 628 450 669 504 654 m 550 432 b 400 507 521 474 468 507 b 219 331 299 507 219 431 b 400 151 219 225 299 151 b 550 226 467 151 519 183 "},"ġ":{"ha":792,"x_min":0,"x_max":0,"o":"m 413 754 b 306 861 351 754 306 800 b 413 965 306 919 351 965 b 522 861 478 965 522 919 b 413 754 522 800 478 754 m 553 653 l 724 653 l 724 22 b 379 -300 724 -190 554 -300 b 83 -176 251 -300 133 -233 l 178 -51 b 379 -137 235 -110 310 -139 b 550 10 474 -136 550 -83 l 550 26 b 389 -11 503 3 446 -11 b 44 331 199 -11 44 129 b 389 669 44 529 199 669 b 553 628 450 669 504 654 m 400 151 b 550 226 467 151 519 183 l 550 432 b 400 507 521 474 468 507 b 219 331 299 507 219 431 b 400 151 219 225 299 151 "},"h":{"ha":658,"x_min":0,"x_max":0,"o":"m 69 0 l 69 972 l 243 972 l 243 624 b 374 669 274 650 317 669 b 592 436 511 669 592 567 l 592 0 l 418 0 l 418 415 b 326 508 418 468 386 508 b 243 457 289 508 260 488 l 243 0 "},"ħ":{"ha":686,"x_min":0,"x_max":0,"o":"m 401 669 b 618 436 539 669 618 567 l 618 0 l 444 0 l 444 415 b 354 508 444 468 414 508 b 271 457 317 508 286 488 l 271 0 l 97 0 l 97 749 l 19 749 l 19 888 l 97 888 l 97 972 l 271 972 l 271 888 l 447 888 l 447 749 l 271 749 l 271 624 b 401 669 300 650 343 669 "},"ĥ":{"ha":658,"x_min":0,"x_max":0,"o":"m 157 1119 l 82 1040 l -69 1040 l 60 1231 l 253 1231 l 382 1040 l 232 1040 m 374 669 b 592 436 511 669 592 567 l 592 0 l 418 0 l 418 415 b 326 508 418 468 386 508 b 243 457 289 508 260 488 l 243 0 l 69 0 l 69 972 l 243 972 l 243 624 b 374 669 274 650 317 669 "},"i":{"ha":321,"x_min":0,"x_max":0,"o":"m 158 758 b 53 867 99 758 53 806 b 158 971 53 925 99 971 b 268 867 225 971 268 925 b 158 758 268 806 225 758 m 69 0 l 69 653 l 244 653 l 244 0 "},"ı":{"ha":317,"x_min":0,"x_max":0,"o":"m 72 0 l 72 653 l 246 653 l 246 0 "},"í":{"ha":317,"x_min":0,"x_max":0,"o":"m 76 775 l 149 974 l 342 974 l 215 775 m 72 0 l 72 653 l 246 653 l 246 0 "},"ĭ":{"ha":317,"x_min":0,"x_max":0,"o":"m 163 767 b -36 964 29 767 -36 853 l 97 964 b 163 888 97 919 117 888 b 226 964 204 888 226 921 l 358 964 b 163 767 358 853 293 767 m 72 0 l 72 653 l 246 653 l 246 0 "},"ǐ":{"ha":317,"x_min":0,"x_max":0,"o":"m 239 967 l 388 967 l 258 776 l 67 776 l -62 967 l 89 967 l 164 888 m 72 0 l 72 653 l 246 653 l 246 0 "},"î":{"ha":317,"x_min":0,"x_max":0,"o":"m 163 856 l 88 776 l -64 776 l 65 967 l 257 967 l 386 776 l 238 776 m 72 0 l 72 653 l 246 653 l 246 0 "},"ï":{"ha":317,"x_min":0,"x_max":0,"o":"m 28 775 b -69 875 -28 775 -69 818 b 28 972 -69 929 -28 972 b 129 875 89 972 129 929 b 28 775 129 818 89 775 m 289 775 b 190 875 232 775 190 818 b 289 972 190 929 232 972 b 390 875 347 972 390 929 b 289 775 390 818 347 775 m 72 0 l 72 653 l 246 653 l 246 0 "},"ì":{"ha":317,"x_min":0,"x_max":0,"o":"m 236 775 l 97 775 l -29 974 l 164 974 m 72 0 l 72 653 l 246 653 l 246 0 "},"ĳ":{"ha":654,"x_min":0,"x_max":0,"o":"m 492 760 b 386 868 432 760 386 806 b 492 972 386 925 432 972 b 601 868 557 972 601 925 b 492 760 601 806 557 760 m 158 758 b 53 867 99 758 53 806 b 158 971 53 925 99 971 b 268 867 225 971 268 925 b 158 758 268 806 225 758 m 69 0 l 69 653 l 244 653 l 244 0 m 403 653 l 576 653 l 576 -56 b 350 -286 576 -186 500 -286 l 283 -286 l 283 -119 l 336 -119 b 403 -46 369 -119 403 -97 "},"ī":{"ha":317,"x_min":0,"x_max":0,"o":"m -4 801 l -4 951 l 322 951 l 322 801 m 72 0 l 72 653 l 246 653 l 246 0 "},"į":{"ha":317,"x_min":0,"x_max":0,"o":"m 157 767 b 51 875 97 767 51 814 b 157 979 51 933 97 979 b 267 875 224 979 267 933 b 157 767 267 814 224 767 m 72 0 l 72 653 l 246 653 l 246 0 l 143 -99 b 121 -142 132 -110 121 -122 b 175 -187 121 -169 143 -187 l 246 -187 l 246 -310 l 129 -310 b -26 -167 44 -310 -26 -258 b 46 -31 -26 -111 0 -71 l 78 0 "},"ĩ":{"ha":317,"x_min":0,"x_max":0,"o":"m 243 786 b 171 803 214 786 193 793 l 113 826 b 82 835 99 832 92 835 b 53 806 65 835 53 824 l 53 788 l -62 788 l -62 833 b 65 965 -62 917 -8 965 b 135 949 89 965 113 958 l 189 926 b 228 917 204 919 215 917 b 257 946 243 917 257 928 l 257 964 l 371 964 l 371 917 b 243 786 371 835 317 786 m 72 0 l 72 653 l 246 653 l 246 0 "},"j":{"ha":342,"x_min":0,"x_max":0,"o":"m 179 760 b 74 868 119 760 74 806 b 179 972 74 925 119 972 b 289 868 244 972 289 925 b 179 760 289 806 244 760 m 90 653 l 264 653 l 264 -56 b 38 -286 264 -186 188 -286 l -29 -286 l -29 -119 l 24 -119 b 90 -46 57 -119 90 -97 "},"ȷ":{"ha":317,"x_min":0,"x_max":0,"o":"m 90 653 l 264 653 l 264 -56 b 38 -286 264 -186 188 -286 l -29 -286 l -29 -119 l 24 -119 b 90 -46 57 -119 90 -97 "},"ĵ":{"ha":317,"x_min":0,"x_max":0,"o":"m 181 856 l 106 776 l -46 776 l 83 967 l 275 967 l 404 776 l 256 776 m 90 653 l 264 653 l 264 -56 b 38 -286 264 -186 188 -286 l -29 -286 l -29 -119 l 24 -119 b 90 -46 57 -119 90 -97 "},"k":{"ha":635,"x_min":0,"x_max":0,"o":"m 640 0 l 442 0 l 243 310 l 243 0 l 69 0 l 69 972 l 243 972 l 243 406 l 397 653 l 590 653 l 406 360 "},"ķ":{"ha":635,"x_min":0,"x_max":0,"o":"m 406 360 l 640 0 l 442 0 l 243 310 l 243 0 l 69 0 l 69 972 l 243 972 l 243 406 l 397 653 l 590 653 m 336 -74 b 433 -175 389 -74 433 -110 l 433 -243 b 304 -358 433 -322 375 -358 l 254 -358 l 254 -276 l 304 -276 b 347 -237 332 -276 347 -262 l 347 -233 l 332 -233 b 250 -156 283 -233 250 -199 b 336 -74 250 -108 289 -74 "},"ĸ":{"ha":636,"x_min":0,"x_max":0,"o":"m 642 0 l 443 0 l 246 307 l 246 0 l 72 0 l 72 653 l 246 653 l 246 408 l 399 653 l 592 653 l 407 360 "},"l":{"ha":314,"x_min":0,"x_max":0,"o":"m 69 0 l 69 972 l 243 972 l 243 0 "},"ĺ":{"ha":314,"x_min":0,"x_max":0,"o":"m 74 1039 l 146 1238 l 339 1238 l 213 1039 m 69 0 l 69 972 l 243 972 l 243 0 "},"ľ":{"ha":475,"x_min":0,"x_max":0,"o":"m 69 0 l 69 972 l 243 972 l 243 0 m 303 711 l 303 972 l 475 972 l 428 711 "},"ļ":{"ha":314,"x_min":0,"x_max":0,"o":"m 243 972 l 243 0 l 69 0 l 69 972 m 153 -74 b 250 -175 206 -74 250 -110 l 250 -243 b 121 -358 250 -322 192 -358 l 71 -358 l 71 -276 l 121 -276 b 164 -237 149 -276 164 -262 l 164 -233 l 149 -233 b 67 -156 100 -233 67 -199 b 153 -74 67 -108 106 -74 "},"ŀ":{"ha":546,"x_min":0,"x_max":0,"o":"m 69 0 l 69 972 l 243 972 l 243 0 m 431 376 b 308 494 364 376 308 431 b 431 614 308 563 364 614 b 551 494 497 614 551 563 b 431 376 551 431 497 376 "},"ł":{"ha":451,"x_min":0,"x_max":0,"o":"m 425 690 l 425 515 l 314 446 l 314 0 l 140 0 l 140 338 l 36 272 l 36 447 l 140 513 l 140 972 l 314 972 l 314 621 "},"m":{"ha":975,"x_min":0,"x_max":0,"o":"m 72 0 l 72 653 l 246 653 l 246 624 b 372 669 275 650 317 669 b 533 600 442 669 499 640 b 686 669 563 635 611 669 b 907 436 818 669 907 569 l 907 0 l 733 0 l 733 419 b 653 508 733 468 707 508 b 579 444 617 508 582 481 l 579 0 l 406 0 l 406 415 b 321 508 406 468 375 508 b 246 453 282 508 256 482 l 246 0 "},"n":{"ha":661,"x_min":0,"x_max":0,"o":"m 375 669 b 593 436 513 669 593 567 l 593 0 l 419 0 l 419 415 b 328 508 419 468 388 508 b 246 457 292 508 260 486 l 246 0 l 72 0 l 72 653 l 246 653 l 246 624 b 375 669 276 650 319 669 "},"ń":{"ha":661,"x_min":0,"x_max":0,"o":"m 514 968 l 388 769 l 249 769 l 321 968 m 375 669 b 593 436 513 669 593 567 l 593 0 l 419 0 l 419 415 b 328 508 419 468 388 508 b 246 457 292 508 260 486 l 246 0 l 72 0 l 72 653 l 246 653 l 246 624 b 375 669 276 650 319 669 "},"ň":{"ha":661,"x_min":0,"x_max":0,"o":"m 431 771 l 239 771 l 110 961 l 261 961 l 336 882 l 411 961 l 560 961 m 375 669 b 593 436 513 669 593 567 l 593 0 l 419 0 l 419 415 b 328 508 419 468 388 508 b 246 457 292 508 260 486 l 246 0 l 72 0 l 72 653 l 246 653 l 246 624 b 375 669 276 650 319 669 "},"ņ":{"ha":661,"x_min":0,"x_max":0,"o":"m 375 669 b 593 436 513 669 593 567 l 593 0 l 419 0 l 419 415 b 328 508 419 468 388 508 b 246 457 292 508 260 486 l 246 0 l 72 0 l 72 653 l 246 653 l 246 624 b 375 669 276 650 319 669 m 344 -74 b 442 -175 397 -74 442 -110 l 442 -243 b 313 -358 442 -322 383 -358 l 263 -358 l 263 -276 l 313 -276 b 356 -237 340 -276 356 -262 l 356 -233 l 340 -233 b 258 -156 292 -233 258 -199 b 344 -74 258 -108 297 -74 "},"ŋ":{"ha":661,"x_min":0,"x_max":0,"o":"m 375 669 b 593 436 513 669 593 567 l 593 -56 b 367 -286 593 -186 517 -286 l 300 -286 l 300 -119 l 353 -119 b 419 -46 386 -119 419 -97 l 419 415 b 328 508 419 468 388 508 b 246 453 292 508 258 485 l 246 0 l 72 0 l 72 653 l 246 653 l 246 624 b 375 669 275 650 318 669 "},"ñ":{"ha":661,"x_min":0,"x_max":0,"o":"m 225 782 l 110 782 l 110 828 b 238 960 110 911 164 960 b 307 943 261 960 285 953 l 361 921 b 400 911 376 914 388 911 b 429 940 415 911 429 922 l 429 958 l 543 958 l 543 911 b 415 781 543 829 489 781 b 343 797 386 781 365 788 l 285 821 b 254 829 271 826 264 829 b 225 800 238 829 225 818 m 375 669 b 593 436 513 669 593 567 l 593 0 l 419 0 l 419 415 b 328 508 419 468 388 508 b 246 457 292 508 260 486 l 246 0 l 72 0 l 72 653 l 246 653 l 246 624 b 375 669 276 650 319 669 "},"o":{"ha":800,"x_min":0,"x_max":0,"o":"m 399 -17 b 44 325 201 -17 44 125 b 400 669 44 528 201 669 b 756 325 599 669 756 526 b 399 -17 756 126 599 -17 m 399 146 b 581 325 503 146 581 222 b 399 507 581 431 503 507 b 219 325 296 507 219 431 b 399 146 219 221 297 146 "},"ó":{"ha":800,"x_min":0,"x_max":0,"o":"m 317 775 l 389 974 l 582 974 l 456 775 m 399 -17 b 44 325 201 -17 44 125 b 400 669 44 528 201 669 b 756 325 599 669 756 526 b 399 -17 756 126 599 -17 m 399 146 b 581 325 503 146 581 222 b 399 507 581 431 503 507 b 219 325 296 507 219 431 b 399 146 219 221 297 146 "},"ŏ":{"ha":800,"x_min":0,"x_max":0,"o":"m 403 767 b 204 964 269 767 204 853 l 338 964 b 403 888 338 919 357 888 b 467 964 444 888 467 921 l 599 964 b 403 767 599 853 533 767 m 399 -17 b 44 325 201 -17 44 125 b 400 669 44 528 201 669 b 756 325 599 669 756 526 b 399 -17 756 126 599 -17 m 399 146 b 581 325 503 146 581 222 b 399 507 581 431 503 507 b 219 325 296 507 219 431 b 399 146 219 221 297 146 "},"ǒ":{"ha":800,"x_min":0,"x_max":0,"o":"m 499 776 l 307 776 l 178 967 l 329 967 l 404 888 l 479 967 l 628 967 m 400 669 b 756 325 599 669 756 526 b 399 -17 756 126 599 -17 b 44 325 201 -17 44 125 b 400 669 44 528 201 669 m 399 146 b 581 325 503 146 581 222 b 399 507 581 431 503 507 b 219 325 296 507 219 431 b 399 146 219 221 297 146 "},"ô":{"ha":800,"x_min":0,"x_max":0,"o":"m 404 856 l 329 776 l 178 776 l 307 967 l 499 967 l 628 776 l 479 776 m 400 669 b 756 325 599 669 756 526 b 399 -17 756 126 599 -17 b 44 325 201 -17 44 125 b 400 669 44 528 201 669 m 399 146 b 581 325 503 146 581 222 b 399 507 581 431 503 507 b 219 325 296 507 219 431 b 399 146 219 221 297 146 "},"ö":{"ha":800,"x_min":0,"x_max":0,"o":"m 268 775 b 171 875 213 775 171 818 b 268 972 171 929 213 972 b 369 875 329 972 369 929 b 268 775 369 818 329 775 m 529 775 b 431 875 472 775 431 818 b 529 972 431 929 472 972 b 631 875 588 972 631 929 b 529 775 631 818 588 775 m 399 -17 b 44 325 201 -17 44 125 b 400 669 44 528 201 669 b 756 325 599 669 756 526 b 399 -17 756 126 599 -17 m 399 146 b 581 325 503 146 581 222 b 399 507 581 431 503 507 b 219 325 296 507 219 431 b 399 146 219 221 297 146 "},"ò":{"ha":800,"x_min":0,"x_max":0,"o":"m 478 775 l 339 775 l 213 974 l 406 974 m 399 -17 b 44 325 201 -17 44 125 b 400 669 44 528 201 669 b 756 325 599 669 756 526 b 399 -17 756 126 599 -17 m 399 146 b 581 325 503 146 581 222 b 399 507 581 431 503 507 b 219 325 296 507 219 431 b 399 146 219 221 297 146 "},"ő":{"ha":800,"x_min":0,"x_max":0,"o":"m 317 775 l 396 978 l 582 978 l 464 775 m 400 669 b 756 325 599 669 756 526 b 399 -17 756 126 599 -17 b 44 325 201 -17 44 125 b 400 669 44 528 201 669 m 399 146 b 581 325 503 146 581 222 b 399 507 581 431 503 507 b 219 325 296 507 219 431 b 399 146 219 221 297 146 "},"ō":{"ha":800,"x_min":0,"x_max":0,"o":"m 214 804 l 214 946 l 586 946 l 586 804 m 399 -17 b 44 325 201 -17 44 125 b 400 669 44 528 201 669 b 756 325 599 669 756 526 b 399 -17 756 126 599 -17 m 399 146 b 581 325 503 146 581 222 b 399 507 581 431 503 507 b 219 325 296 507 219 431 b 399 146 219 221 297 146 "},"ø":{"ha":800,"x_min":0,"x_max":0,"o":"m 663 563 b 756 325 721 503 756 421 b 399 -17 756 126 599 -17 b 244 15 343 -17 290 -6 l 181 -68 l 74 15 l 133 93 b 44 325 78 153 44 233 b 400 669 44 528 201 669 b 550 640 454 669 504 658 l 618 729 l 726 647 m 219 325 b 242 236 219 292 228 261 l 444 501 b 399 507 431 506 415 507 b 219 325 296 507 219 431 m 399 146 b 581 325 503 146 581 222 b 554 422 581 361 571 394 l 349 153 b 399 146 364 149 381 146 "},"õ":{"ha":800,"x_min":0,"x_max":0,"o":"m 483 786 b 411 803 454 786 433 793 l 353 826 b 322 835 339 832 332 835 b 293 806 306 835 293 824 l 293 788 l 178 788 l 178 833 b 306 965 178 917 232 965 b 375 949 329 965 353 958 l 429 926 b 468 917 444 919 456 917 b 497 946 483 917 497 928 l 497 964 l 611 964 l 611 917 b 483 786 611 835 557 786 m 399 -17 b 44 325 201 -17 44 125 b 400 669 44 528 201 669 b 756 325 599 669 756 526 b 399 -17 756 126 599 -17 m 399 146 b 581 325 503 146 581 222 b 399 507 581 431 503 507 b 219 325 296 507 219 431 b 399 146 219 221 297 146 "},"œ":{"ha":1324,"x_min":0,"x_max":0,"o":"m 1279 315 b 1276 263 1279 301 1278 274 l 763 263 b 933 138 785 186 849 138 b 1096 214 999 138 1065 171 l 1225 122 b 931 -17 1164 40 1058 -17 b 665 94 819 -17 728 25 b 399 -17 601 25 507 -17 b 44 325 201 -17 44 125 b 400 669 44 528 201 669 b 667 558 507 669 603 628 b 931 669 729 628 821 669 b 1279 315 1139 669 1279 514 m 1096 397 b 931 519 1079 465 1014 519 b 764 397 847 519 785 468 m 399 146 b 581 325 503 146 581 222 b 399 507 581 431 503 507 b 219 325 296 507 219 431 b 399 146 219 221 297 146 "},"p":{"ha":796,"x_min":0,"x_max":0,"o":"m 72 -286 l 72 653 l 246 653 l 246 631 b 406 669 293 656 346 669 b 751 328 597 669 751 526 b 407 -17 751 126 597 -17 b 246 19 349 -17 293 -4 l 246 -286 m 396 146 b 576 328 499 146 576 224 b 396 507 576 429 499 507 b 246 432 326 507 275 474 l 246 219 b 396 146 276 176 328 146 "},"þ":{"ha":794,"x_min":0,"x_max":0,"o":"m 404 669 b 750 324 596 669 750 526 b 404 -17 750 126 596 -17 b 243 24 346 -17 292 -1 l 243 -286 l 69 -286 l 69 972 l 240 972 l 240 628 b 404 669 289 654 346 669 m 390 144 b 575 325 497 144 575 221 b 390 506 575 431 497 506 b 243 443 324 506 274 481 l 243 208 b 390 144 274 171 324 144 "},"q":{"ha":790,"x_min":0,"x_max":0,"o":"m 550 653 l 724 653 l 724 -286 l 550 -286 l 550 19 b 389 -17 503 -4 447 -17 b 44 328 199 -17 44 126 b 390 669 44 526 199 669 b 550 629 449 669 503 656 m 403 146 b 550 219 469 146 519 178 l 550 432 b 403 507 521 475 468 507 b 219 328 299 507 219 429 b 403 146 219 224 299 146 "},"r":{"ha":504,"x_min":0,"x_max":0,"o":"m 463 653 l 463 479 l 367 479 b 246 351 290 479 246 429 l 246 0 l 72 0 l 72 653 l 244 653 l 244 575 b 399 653 263 610 308 653 "},"ŕ":{"ha":504,"x_min":0,"x_max":0,"o":"m 182 775 l 254 974 l 447 974 l 321 775 m 463 653 l 463 479 l 367 479 b 246 351 290 479 246 429 l 246 0 l 72 0 l 72 653 l 244 653 l 244 575 b 399 653 263 610 308 653 "},"ř":{"ha":504,"x_min":0,"x_max":0,"o":"m 364 776 l 172 776 l 43 967 l 194 967 l 269 888 l 344 967 l 493 967 m 244 575 b 399 653 263 610 308 653 l 463 653 l 463 479 l 367 479 b 246 351 290 479 246 429 l 246 0 l 72 0 l 72 653 l 244 653 "},"ŗ":{"ha":504,"x_min":0,"x_max":0,"o":"m 463 653 l 463 479 l 367 479 b 246 351 290 479 246 429 l 246 0 l 72 0 l 72 653 l 244 653 l 244 575 b 399 653 263 610 308 653 m 197 -74 b 294 -175 250 -74 294 -110 l 294 -243 b 165 -358 294 -322 236 -358 l 115 -358 l 115 -276 l 165 -276 b 208 -237 193 -276 208 -262 l 208 -233 l 193 -233 b 111 -156 144 -233 111 -199 b 197 -74 111 -108 150 -74 "},"s":{"ha":547,"x_min":0,"x_max":0,"o":"m 264 -17 b 43 139 144 -17 68 54 l 182 201 b 264 133 194 165 219 133 b 332 194 306 133 332 163 b 276 261 332 221 315 249 l 222 278 b 63 472 135 306 63 365 b 282 669 63 582 153 669 b 469 564 375 669 439 619 l 344 478 b 283 517 336 499 317 517 b 231 471 253 517 231 496 b 278 418 231 446 249 428 l 338 399 b 504 199 436 367 504 301 b 264 -17 504 78 413 -17 "},"ś":{"ha":547,"x_min":0,"x_max":0,"o":"m 207 769 l 279 968 l 472 968 l 346 769 m 264 -17 b 43 139 144 -17 68 54 l 182 201 b 264 133 194 165 219 133 b 332 194 306 133 332 163 b 276 261 332 221 315 249 l 222 278 b 63 472 135 306 63 365 b 282 669 63 582 153 669 b 469 564 375 669 439 619 l 344 478 b 283 517 336 499 317 517 b 231 471 253 517 231 496 b 278 418 231 446 249 428 l 338 399 b 504 199 436 367 504 301 b 264 -17 504 78 413 -17 "},"š":{"ha":547,"x_min":0,"x_max":0,"o":"m 389 771 l 197 771 l 68 961 l 219 961 l 294 882 l 369 961 l 518 961 m 338 399 b 504 199 436 367 504 301 b 264 -17 504 78 413 -17 b 43 139 144 -17 68 54 l 182 201 b 264 133 194 165 219 133 b 332 194 306 133 332 163 b 276 261 332 221 315 249 l 222 278 b 63 472 135 306 63 365 b 282 669 63 582 153 669 b 469 564 375 669 439 619 l 344 478 b 283 517 336 499 317 517 b 231 471 253 517 231 496 b 278 418 231 446 249 428 "},"ş":{"ha":547,"x_min":0,"x_max":0,"o":"m 324 -47 b 450 -176 401 -47 450 -107 b 315 -310 450 -254 390 -310 l 189 -310 l 189 -215 l 294 -215 b 339 -175 321 -215 339 -199 b 294 -137 339 -151 321 -137 l 201 -137 l 225 -14 b 43 139 128 0 65 64 l 182 201 b 264 133 194 165 219 133 b 332 194 306 133 332 163 b 276 261 332 221 315 249 l 222 278 b 63 472 135 306 63 365 b 282 669 63 582 153 669 b 469 564 375 669 439 619 l 344 478 b 283 517 336 499 317 517 b 231 471 253 517 231 496 b 278 418 231 446 249 428 l 338 399 b 504 199 436 367 504 301 b 319 -12 504 94 435 8 l 311 -47 "},"ŝ":{"ha":547,"x_min":0,"x_max":0,"o":"m 293 850 l 218 771 l 67 771 l 196 961 l 388 961 l 517 771 l 368 771 m 338 399 b 504 199 436 367 504 301 b 264 -17 504 78 413 -17 b 43 139 144 -17 68 54 l 182 201 b 264 133 194 165 219 133 b 332 194 306 133 332 163 b 276 261 332 221 315 249 l 222 278 b 63 472 135 306 63 365 b 282 669 63 582 153 669 b 469 564 375 669 439 619 l 344 478 b 283 517 336 499 317 517 b 231 471 253 517 231 496 b 278 418 231 446 249 428 "},"ș":{"ha":547,"x_min":0,"x_max":0,"o":"m 338 399 b 504 199 436 367 504 301 b 264 -17 504 78 413 -17 b 43 139 144 -17 68 54 l 182 201 b 264 133 194 165 219 133 b 332 194 306 133 332 163 b 276 261 332 221 315 249 l 222 278 b 63 472 135 306 63 365 b 282 669 63 582 153 669 b 469 564 375 669 439 619 l 344 478 b 283 517 336 499 317 517 b 231 471 253 517 231 496 b 278 418 231 446 249 428 m 278 -74 b 375 -175 331 -74 375 -110 l 375 -243 b 246 -358 375 -322 317 -358 l 196 -358 l 196 -276 l 246 -276 b 289 -237 274 -276 289 -262 l 289 -233 l 274 -233 b 192 -156 225 -233 192 -199 b 278 -74 192 -108 231 -74 "},"ß":{"ha":760,"x_min":0,"x_max":0,"o":"m 544 329 b 735 39 644 292 735 196 b 400 -300 735 -164 579 -300 b 221 -256 350 -300 271 -285 l 268 -108 b 390 -139 304 -126 347 -139 b 564 39 494 -139 564 -54 b 336 225 564 151 474 231 l 336 229 l 456 494 l 243 494 l 243 0 l 69 0 l 69 756 b 297 989 69 885 150 989 b 418 956 349 989 396 969 l 364 804 b 311 821 351 814 335 821 b 243 750 279 821 243 800 l 243 653 l 693 653 l 693 649 "},"t":{"ha":454,"x_min":0,"x_max":0,"o":"m 301 0 l 128 0 l 128 496 l 15 496 l 15 653 l 135 653 l 135 978 l 301 978 l 301 653 l 407 653 l 407 496 l 301 496 "},"ŧ":{"ha":454,"x_min":0,"x_max":0,"o":"m 407 496 l 301 496 l 301 429 l 404 429 l 404 290 l 301 290 l 301 0 l 128 0 l 128 290 l 18 290 l 18 429 l 128 429 l 128 496 l 15 496 l 15 653 l 135 653 l 135 978 l 301 978 l 301 653 l 407 653 "},"ť":{"ha":560,"x_min":0,"x_max":0,"o":"m 369 758 l 369 1019 l 542 1019 l 494 758 m 301 0 l 128 0 l 128 496 l 15 496 l 15 653 l 135 653 l 135 978 l 301 978 l 301 653 l 407 653 l 407 496 l 301 496 "},"ţ":{"ha":454,"x_min":0,"x_max":0,"o":"m 301 0 l 257 0 l 244 -47 l 257 -47 b 383 -176 335 -47 383 -107 b 249 -310 383 -254 324 -310 l 122 -310 l 122 -215 l 228 -215 b 272 -175 254 -215 272 -199 b 228 -137 272 -151 254 -137 l 135 -137 l 161 0 l 128 0 l 128 496 l 15 496 l 15 653 l 135 653 l 135 978 l 301 978 l 301 653 l 407 653 l 407 496 l 301 496 "},"ț":{"ha":454,"x_min":0,"x_max":0,"o":"m 301 653 l 407 653 l 407 496 l 301 496 l 301 0 l 128 0 l 128 496 l 15 496 l 15 653 l 135 653 l 135 978 l 301 978 m 249 -74 b 346 -175 301 -74 346 -110 l 346 -243 b 217 -358 346 -322 288 -358 l 167 -358 l 167 -276 l 217 -276 b 260 -237 244 -276 260 -262 l 260 -233 l 244 -233 b 163 -156 196 -233 163 -199 b 249 -74 163 -108 201 -74 "},"u":{"ha":654,"x_min":0,"x_max":0,"o":"m 415 653 l 589 653 l 589 236 b 328 -17 589 103 508 -17 b 67 236 146 -17 67 103 l 67 653 l 240 653 l 240 235 b 328 144 240 182 272 144 b 415 235 382 144 415 182 "},"ú":{"ha":654,"x_min":0,"x_max":0,"o":"m 247 775 l 319 974 l 513 974 l 386 775 m 415 653 l 589 653 l 589 236 b 328 -17 589 103 508 -17 b 65 236 146 -17 65 103 l 65 653 l 240 653 l 240 235 b 328 144 240 182 272 144 b 415 235 382 144 415 182 "},"ŭ":{"ha":654,"x_min":0,"x_max":0,"o":"m 333 767 b 135 964 200 767 135 853 l 268 964 b 333 888 268 919 288 888 b 397 964 375 888 397 921 l 529 964 b 333 767 529 853 464 767 m 415 653 l 589 653 l 589 236 b 328 -17 589 103 508 -17 b 65 236 146 -17 65 103 l 65 653 l 240 653 l 240 235 b 328 144 240 182 272 144 b 415 235 382 144 415 182 "},"û":{"ha":654,"x_min":0,"x_max":0,"o":"m 333 856 l 258 776 l 107 776 l 236 967 l 428 967 l 557 776 l 408 776 m 415 653 l 589 653 l 589 236 b 328 -17 589 103 508 -17 b 65 236 146 -17 65 103 l 65 653 l 240 653 l 240 235 b 328 144 240 182 272 144 b 415 235 382 144 415 182 "},"ü":{"ha":654,"x_min":0,"x_max":0,"o":"m 199 775 b 101 875 143 775 101 818 b 199 972 101 929 143 972 b 300 875 260 972 300 929 b 199 775 300 818 260 775 m 460 775 b 361 875 403 775 361 818 b 460 972 361 929 403 972 b 561 875 518 972 561 929 b 460 775 561 818 518 775 m 415 653 l 589 653 l 589 236 b 328 -17 589 103 508 -17 b 65 236 146 -17 65 103 l 65 653 l 240 653 l 240 235 b 328 144 240 182 272 144 b 415 235 382 144 415 182 "},"ù":{"ha":654,"x_min":0,"x_max":0,"o":"m 407 775 l 268 775 l 142 974 l 335 974 m 415 653 l 589 653 l 589 236 b 328 -17 589 103 508 -17 b 65 236 146 -17 65 103 l 65 653 l 240 653 l 240 235 b 328 144 240 182 272 144 b 415 235 382 144 415 182 "},"ű":{"ha":654,"x_min":0,"x_max":0,"o":"m 247 775 l 326 978 l 513 978 l 394 775 m 415 653 l 589 653 l 589 236 b 328 -17 589 103 508 -17 b 65 236 146 -17 65 103 l 65 653 l 240 653 l 240 235 b 328 144 240 182 272 144 b 415 235 382 144 415 182 "},"ū":{"ha":654,"x_min":0,"x_max":0,"o":"m 143 804 l 143 946 l 515 946 l 515 804 m 415 653 l 589 653 l 589 236 b 328 -17 589 103 508 -17 b 67 236 146 -17 67 103 l 67 653 l 240 653 l 240 235 b 328 144 240 182 272 144 b 415 235 382 144 415 182 "},"ų":{"ha":654,"x_min":0,"x_max":0,"o":"m 415 653 l 589 653 l 589 236 b 433 0 589 132 540 36 l 331 -99 b 308 -142 319 -110 308 -122 b 363 -187 308 -169 331 -187 l 433 -187 l 433 -310 l 317 -310 b 161 -167 232 -310 161 -258 b 233 -31 161 -111 188 -71 l 256 -10 b 67 236 125 18 67 122 l 67 653 l 240 653 l 240 235 b 328 144 240 182 272 144 b 415 235 382 144 415 182 "},"ů":{"ha":654,"x_min":0,"x_max":0,"o":"m 332 732 b 188 869 250 732 188 792 b 331 1006 188 949 250 1006 b 476 871 415 1006 476 949 b 332 732 476 792 414 732 m 332 814 b 388 871 365 814 388 838 b 331 925 388 901 365 925 b 276 869 300 925 276 901 b 332 814 276 838 300 814 m 415 653 l 589 653 l 589 236 b 328 -17 589 103 508 -17 b 67 236 146 -17 67 103 l 67 653 l 240 653 l 240 235 b 328 144 240 182 272 144 b 415 235 382 144 415 182 "},"ũ":{"ha":654,"x_min":0,"x_max":0,"o":"m 428 786 b 354 803 397 786 376 793 l 296 826 b 265 835 282 832 275 835 b 236 806 249 835 236 824 l 236 788 l 121 788 l 121 835 b 249 965 121 917 176 965 b 318 949 274 965 296 958 l 374 926 b 411 917 389 919 400 917 b 440 946 428 917 440 928 l 440 964 l 556 964 l 556 917 b 428 786 556 835 501 786 m 415 653 l 589 653 l 589 236 b 328 -17 589 103 508 -17 b 67 236 146 -17 67 103 l 67 653 l 240 653 l 240 235 b 328 144 240 182 272 144 b 415 235 382 144 415 182 "},"v":{"ha":642,"x_min":0,"x_max":0,"o":"m 449 653 l 640 653 l 413 0 l 231 0 l 3 653 l 189 653 l 319 228 "},"w":{"ha":960,"x_min":0,"x_max":0,"o":"m 751 653 l 938 653 l 753 0 l 604 0 l 483 306 l 357 0 l 221 0 l 24 653 l 208 653 l 308 281 l 475 660 l 486 660 l 660 282 "},"ẃ":{"ha":960,"x_min":0,"x_max":0,"o":"m 663 974 l 536 775 l 397 775 l 469 974 m 751 653 l 938 653 l 753 0 l 604 0 l 483 306 l 357 0 l 221 0 l 24 653 l 208 653 l 308 281 l 475 660 l 486 660 l 660 282 "},"ŵ":{"ha":960,"x_min":0,"x_max":0,"o":"m 485 856 l 410 776 l 258 776 l 388 967 l 579 967 l 708 776 l 560 776 m 751 653 l 938 653 l 753 0 l 604 0 l 483 306 l 357 0 l 221 0 l 24 653 l 208 653 l 308 281 l 475 660 l 486 660 l 660 282 "},"ẅ":{"ha":960,"x_min":0,"x_max":0,"o":"m 349 775 b 251 875 293 775 251 818 b 349 972 251 929 293 972 b 450 875 410 972 450 929 b 349 775 450 818 410 775 m 610 775 b 511 875 553 775 511 818 b 610 972 511 929 553 972 b 711 875 668 972 711 929 b 610 775 711 818 668 775 m 751 653 l 938 653 l 753 0 l 604 0 l 483 306 l 357 0 l 221 0 l 24 653 l 208 653 l 308 281 l 475 660 l 486 660 l 660 282 "},"ẁ":{"ha":960,"x_min":0,"x_max":0,"o":"m 583 776 l 444 776 l 318 975 l 511 975 m 751 653 l 938 653 l 753 0 l 604 0 l 483 306 l 357 0 l 221 0 l 24 653 l 208 653 l 308 281 l 475 660 l 486 660 l 660 282 "},"x":{"ha":610,"x_min":0,"x_max":0,"o":"m 408 338 l 599 0 l 403 0 l 306 183 l 207 0 l 11 0 l 201 338 l 25 653 l 215 653 l 306 488 l 393 653 l 583 653 "},"y":{"ha":796,"x_min":0,"x_max":0,"o":"m 140 -286 l 311 67 l 3 653 l 203 653 l 407 258 l 594 653 l 794 653 l 340 -286 "},"ý":{"ha":796,"x_min":0,"x_max":0,"o":"m 317 775 l 389 974 l 582 974 l 456 775 m 140 -286 l 311 67 l 3 653 l 203 653 l 407 258 l 594 653 l 794 653 l 340 -286 "},"ŷ":{"ha":796,"x_min":0,"x_max":0,"o":"m 404 856 l 329 776 l 178 776 l 307 967 l 499 967 l 628 776 l 479 776 m 594 653 l 794 653 l 340 -286 l 140 -286 l 311 67 l 3 653 l 203 653 l 407 258 "},"ÿ":{"ha":796,"x_min":0,"x_max":0,"o":"m 268 775 b 171 875 213 775 171 818 b 268 972 171 929 213 972 b 369 875 329 972 369 929 b 268 775 369 818 329 775 m 529 775 b 431 875 472 775 431 818 b 529 972 431 929 472 972 b 631 875 588 972 631 929 b 529 775 631 818 588 775 m 140 -286 l 311 67 l 3 653 l 203 653 l 407 258 l 594 653 l 794 653 l 340 -286 "},"ỳ":{"ha":796,"x_min":0,"x_max":0,"o":"m 478 775 l 339 775 l 213 974 l 406 974 m 140 -286 l 311 67 l 3 653 l 203 653 l 407 258 l 594 653 l 794 653 l 340 -286 "},"z":{"ha":640,"x_min":0,"x_max":0,"o":"m 268 160 l 583 160 l 583 0 l 54 0 l 54 160 l 358 497 l 65 497 l 65 653 l 576 653 l 576 497 "},"ź":{"ha":640,"x_min":0,"x_max":0,"o":"m 501 974 l 375 775 l 236 775 l 308 974 m 268 160 l 583 160 l 583 0 l 54 0 l 54 160 l 358 497 l 65 497 l 65 653 l 576 653 l 576 497 "},"ž":{"ha":640,"x_min":0,"x_max":0,"o":"m 418 776 l 226 776 l 97 967 l 249 967 l 324 888 l 399 967 l 547 967 m 268 160 l 583 160 l 583 0 l 54 0 l 54 160 l 358 497 l 65 497 l 65 653 l 576 653 l 576 497 "},"ż":{"ha":640,"x_min":0,"x_max":0,"o":"m 319 754 b 213 861 258 754 213 800 b 319 965 213 919 258 965 b 429 861 385 965 429 919 b 319 754 429 800 385 754 m 268 160 l 583 160 l 583 0 l 54 0 l 54 160 l 358 497 l 65 497 l 65 653 l 576 653 l 576 497 "},"ª":{"ha":696,"x_min":0,"x_max":0,"o":"m 488 976 l 632 976 l 632 429 l 490 429 l 490 447 b 353 417 449 426 401 417 b 64 706 193 417 64 536 b 353 990 64 869 193 990 b 488 957 401 990 447 978 m 361 551 b 488 614 417 551 463 579 l 488 792 b 361 854 463 826 417 854 b 211 706 274 854 211 789 b 361 551 211 615 274 551 "},"º":{"ha":711,"x_min":0,"x_max":0,"o":"m 356 417 b 53 704 182 417 53 535 b 357 990 53 875 182 990 b 660 704 531 990 660 874 b 356 417 660 536 531 417 m 356 564 b 500 704 438 563 500 621 b 356 844 500 785 438 846 b 211 704 272 846 211 785 b 356 564 211 619 272 563 "},"¹":{"ha":482,"x_min":0,"x_max":0,"o":"m 326 547 l 415 547 l 415 422 l 69 422 l 69 547 l 194 547 l 194 850 l 79 850 l 79 972 l 326 972 "},"²":{"ha":515,"x_min":0,"x_max":0,"o":"m 238 538 l 450 538 l 450 422 l 64 422 l 64 528 l 281 736 b 315 806 299 753 315 774 b 251 865 315 836 292 865 b 186 801 211 865 186 836 l 186 775 l 63 775 l 63 801 b 253 983 63 888 124 983 b 444 807 375 983 444 894 b 354 647 444 746 411 697 "},"³":{"ha":507,"x_min":0,"x_max":0,"o":"m 340 756 b 450 599 407 732 450 669 b 254 411 450 485 365 411 b 61 593 139 411 64 492 l 181 593 b 254 526 183 553 213 526 b 325 599 299 526 325 557 b 238 672 325 646 288 672 l 139 672 l 139 676 l 296 863 l 79 863 l 79 972 l 440 972 l 440 871 "},"⁄":{"ha":661,"x_min":0,"x_max":0,"o":"m 4 0 l 499 972 l 657 972 l 161 0 "},"½":{"ha":1206,"x_min":0,"x_max":0,"o":"m 415 547 l 415 422 l 69 422 l 69 547 l 194 547 l 194 850 l 79 850 l 79 972 l 326 972 l 326 547 m 781 972 l 939 972 l 443 0 l 286 0 m 922 115 l 1135 115 l 1135 0 l 749 0 l 749 106 l 965 314 b 1000 383 983 331 1000 351 b 936 443 1000 414 976 443 b 871 379 896 443 871 414 l 871 353 l 747 353 l 747 379 b 938 561 747 465 808 561 b 1129 385 1060 561 1129 472 b 1039 225 1129 324 1096 275 "},"¼":{"ha":1178,"x_min":0,"x_max":0,"o":"m 415 547 l 415 422 l 69 422 l 69 547 l 194 547 l 194 850 l 79 850 l 79 972 l 326 972 l 326 547 m 781 972 l 939 972 l 443 0 l 286 0 m 1126 222 l 1126 103 l 1064 103 l 1064 0 l 938 0 l 938 103 l 675 103 l 675 214 l 832 550 l 967 550 l 815 222 l 938 222 l 938 360 l 1064 360 l 1064 222 "},"¾":{"ha":1178,"x_min":0,"x_max":0,"o":"m 450 594 b 258 411 450 485 368 411 b 61 590 139 411 65 483 l 181 590 b 256 521 185 547 213 521 b 325 593 301 521 325 551 b 232 672 325 642 290 672 l 139 671 l 139 675 l 297 863 l 79 863 l 79 972 l 440 972 l 440 871 l 340 756 b 450 594 407 732 450 669 m 781 972 l 939 972 l 443 0 l 286 0 m 1126 222 l 1126 103 l 1064 103 l 1064 0 l 938 0 l 938 103 l 675 103 l 675 214 l 832 550 l 967 550 l 815 222 l 938 222 l 938 360 l 1064 360 l 1064 222 "},".":{"ha":386,"x_min":0,"x_max":0,"o":"m 193 -18 b 72 100 128 -18 72 36 b 193 219 72 167 128 219 b 314 100 261 219 314 167 b 193 -18 314 36 261 -18 "},",":{"ha":392,"x_min":0,"x_max":0,"o":"m 197 218 b 331 71 265 218 331 169 l 331 -19 b 140 -200 331 -149 247 -200 l 75 -200 l 75 -86 l 140 -86 b 206 -28 182 -86 206 -65 l 206 -19 l 193 -19 b 72 99 119 -19 72 35 b 197 218 72 167 129 218 "},":":{"ha":386,"x_min":0,"x_max":0,"o":"m 193 446 b 72 564 128 446 72 500 b 193 683 72 632 128 683 b 314 564 261 683 314 632 b 193 446 314 500 261 446 m 193 -18 b 72 100 128 -18 72 36 b 193 219 72 167 128 219 b 314 100 261 219 314 167 b 193 -18 314 36 261 -18 "},";":{"ha":393,"x_min":0,"x_max":0,"o":"m 193 446 b 72 564 128 446 72 500 b 193 683 72 632 128 683 b 314 564 261 683 314 632 b 193 446 314 500 261 446 m 197 218 b 331 71 265 218 331 169 l 331 -19 b 140 -200 331 -149 247 -200 l 75 -200 l 75 -86 l 140 -86 b 206 -28 182 -86 206 -65 l 206 -19 l 193 -19 b 72 99 119 -19 72 35 b 197 218 72 167 129 218 "},"…":{"ha":1185,"x_min":0,"x_max":0,"o":"m 193 -18 b 72 100 128 -18 72 36 b 193 219 72 167 128 219 b 314 100 261 219 314 167 b 193 -18 314 36 261 -18 m 593 -18 b 471 100 526 -18 471 36 b 593 219 471 167 526 219 b 714 100 660 219 714 167 b 593 -18 714 36 660 -18 m 992 -18 b 871 100 926 -18 871 36 b 992 219 871 167 926 219 b 1113 100 1060 219 1113 167 b 992 -18 1113 36 1060 -18 "},"!":{"ha":422,"x_min":0,"x_max":0,"o":"m 146 313 l 89 972 l 335 972 l 278 313 m 211 -18 b 90 100 146 -18 90 36 b 211 219 90 167 146 219 b 333 100 279 219 333 167 b 211 -18 333 36 279 -18 "},"¡":{"ha":422,"x_min":0,"x_max":0,"o":"m 211 778 b 333 660 279 778 333 724 b 211 540 333 593 279 540 b 90 660 146 540 90 593 b 211 778 90 724 146 778 m 146 447 l 278 447 l 335 -212 l 89 -212 "},"?":{"ha":742,"x_min":0,"x_max":0,"o":"m 278 297 l 257 560 l 296 560 b 476 700 399 560 476 614 b 329 824 476 768 415 824 b 171 756 264 824 210 794 l 76 883 b 333 990 126 938 219 990 b 656 704 533 990 656 847 b 425 433 656 556 550 453 l 410 297 m 343 -18 b 222 100 278 -18 222 36 b 343 219 222 167 278 219 b 465 100 411 219 465 167 b 343 -18 465 36 411 -18 "},"¿":{"ha":742,"x_min":0,"x_max":0,"o":"m 401 778 b 522 660 467 778 522 724 b 401 540 522 593 467 540 b 281 660 333 540 281 593 b 401 778 281 724 333 778 m 467 463 l 488 200 l 449 200 b 268 60 346 200 268 146 b 415 -64 268 -8 329 -64 b 574 4 481 -64 536 -35 l 668 -124 b 411 -231 619 -178 525 -231 b 90 56 211 -231 90 -87 b 319 326 90 204 194 307 l 335 463 "},"·":{"ha":386,"x_min":0,"x_max":0,"o":"m 193 413 b 72 531 128 413 72 467 b 193 650 72 597 128 650 b 314 531 261 650 314 597 b 193 413 314 467 261 413 "},"•":{"ha":706,"x_min":0,"x_max":0,"o":"m 353 169 b 78 444 194 169 78 292 b 353 719 78 597 194 719 b 628 444 511 719 628 597 b 353 169 628 292 511 169 "},"*":{"ha":644,"x_min":0,"x_max":0,"o":"m 232 585 l 128 658 l 218 771 l 72 763 l 72 886 l 222 876 l 128 997 l 232 1069 l 322 919 l 413 1069 l 517 997 l 421 876 l 572 886 l 572 763 l 426 771 l 517 658 l 413 585 l 322 735 "},"#":{"ha":908,"x_min":0,"x_max":0,"o":"m 814 557 l 713 557 l 681 415 l 781 415 l 744 257 l 644 257 l 601 69 l 436 69 l 479 257 l 325 257 l 282 69 l 117 69 l 160 257 l 58 257 l 94 415 l 196 415 l 228 557 l 128 557 l 164 715 l 264 715 l 307 903 l 472 903 l 429 715 l 583 715 l 626 903 l 792 903 l 749 715 l 850 715 m 515 415 l 547 557 l 393 557 l 361 415 "},"/":{"ha":696,"x_min":0,"x_max":0,"o":"m 42 -150 l 464 1042 l 654 1042 l 231 -150 "},"\\":{"ha":696,"x_min":0,"x_max":0,"o":"m 42 1042 l 231 1042 l 654 -150 l 464 -150 "},"(":{"ha":668,"x_min":0,"x_max":0,"o":"m 265 419 b 615 -110 265 190 376 -25 l 560 -272 b 78 419 285 -189 78 72 b 560 1111 78 767 285 1028 l 615 949 b 265 419 376 864 265 649 "},")":{"ha":668,"x_min":0,"x_max":0,"o":"m 403 419 b 53 949 403 649 292 864 l 108 1111 b 590 419 383 1028 590 767 b 108 -272 590 72 383 -189 l 53 -110 b 403 419 292 -25 403 190 "},"{":{"ha":632,"x_min":0,"x_max":0,"o":"m 458 -171 b 211 71 311 -171 211 -75 l 211 254 b 88 376 211 344 144 376 l 58 376 l 58 539 l 88 539 b 211 665 144 539 211 574 l 211 846 b 458 1088 211 992 311 1088 l 569 1088 l 569 926 l 497 926 b 389 813 424 926 389 879 l 389 643 b 256 458 389 525 321 474 b 389 272 321 443 389 390 l 389 104 b 497 -10 389 38 424 -10 l 569 -10 l 569 -171 "},"}":{"ha":632,"x_min":0,"x_max":0,"o":"m 63 -171 l 63 -10 l 135 -10 b 243 104 208 -10 243 38 l 243 272 b 376 458 243 390 311 443 b 243 643 311 474 243 525 l 243 813 b 135 926 243 879 208 926 l 63 926 l 63 1088 l 174 1088 b 421 846 321 1088 421 992 l 421 665 b 544 539 421 574 488 539 l 574 539 l 574 376 l 544 376 b 421 254 488 376 421 344 l 421 71 b 174 -171 421 -75 321 -171 "},"[":{"ha":499,"x_min":0,"x_max":0,"o":"m 72 -171 l 72 1088 l 431 1088 l 431 929 l 250 929 l 250 -12 l 431 -12 l 431 -171 "},"]":{"ha":499,"x_min":0,"x_max":0,"o":"m 426 -171 l 68 -171 l 68 -12 l 249 -12 l 249 929 l 68 929 l 68 1088 l 426 1088 "},"-":{"ha":551,"x_min":0,"x_max":0,"o":"m 79 335 l 79 497 l 472 497 l 472 335 "},"–":{"ha":904,"x_min":0,"x_max":0,"o":"m 79 335 l 79 504 l 825 504 l 825 335 "},"—":{"ha":1260,"x_min":0,"x_max":0,"o":"m 79 335 l 79 504 l 1181 504 l 1181 335 "},"_":{"ha":629,"x_min":0,"x_max":0,"o":"m 7 -200 l 7 -40 l 622 -40 l 622 -200 "},"‚":{"ha":404,"x_min":0,"x_max":0,"o":"m 203 218 b 336 71 271 218 336 169 l 336 -19 b 146 -200 336 -149 253 -200 l 81 -200 l 81 -86 l 146 -86 b 211 -28 188 -86 211 -65 l 211 -19 l 199 -19 b 78 99 125 -19 78 35 b 203 218 78 167 135 218 "},"„":{"ha":722,"x_min":0,"x_max":0,"o":"m 203 218 b 336 71 271 218 336 169 l 336 -19 b 146 -200 336 -149 253 -200 l 81 -200 l 81 -86 l 146 -86 b 211 -28 188 -86 211 -65 l 211 -19 l 199 -19 b 78 99 125 -19 78 35 b 203 218 78 167 135 218 m 521 218 b 654 71 589 218 654 169 l 654 -19 b 464 -200 654 -149 572 -200 l 399 -200 l 399 -86 l 464 -86 b 529 -28 506 -86 529 -65 l 529 -19 l 517 -19 b 396 99 443 -19 396 35 b 521 218 396 167 453 218 "},"“":{"ha":722,"x_min":0,"x_max":0,"o":"m 206 819 b 326 701 279 819 326 765 b 200 582 326 633 268 582 b 68 729 133 582 68 631 l 68 819 b 258 1000 68 949 150 1000 l 324 1000 l 324 886 l 258 886 b 192 828 217 886 192 865 l 192 819 m 524 819 b 644 701 597 819 644 765 b 519 582 644 633 588 582 b 386 729 451 582 386 631 l 386 819 b 576 1000 386 949 468 1000 l 642 1000 l 642 886 l 576 886 b 511 828 535 886 511 865 l 511 819 "},"”":{"ha":722,"x_min":0,"x_max":0,"o":"m 203 1021 b 336 874 271 1021 336 972 l 336 783 b 146 603 336 654 253 603 l 81 603 l 81 717 l 146 717 b 211 776 188 717 211 739 l 211 783 l 199 783 b 78 901 125 783 78 838 b 203 1021 78 969 135 1021 m 521 1021 b 654 874 589 1021 654 972 l 654 783 b 464 603 654 654 572 603 l 399 603 l 399 717 l 464 717 b 529 776 506 717 529 739 l 529 783 l 517 783 b 396 901 443 783 396 838 b 521 1021 396 969 453 1021 "},"‘":{"ha":404,"x_min":0,"x_max":0,"o":"m 206 819 b 326 701 279 819 326 765 b 200 582 326 633 268 582 b 68 729 133 582 68 631 l 68 819 b 258 1000 68 949 150 1000 l 324 1000 l 324 886 l 258 886 b 192 828 217 886 192 865 l 192 819 "},"’":{"ha":382,"x_min":0,"x_max":0,"o":"m 203 1021 b 336 874 271 1021 336 972 l 336 783 b 146 603 336 654 253 603 l 81 603 l 81 717 l 146 717 b 211 776 188 717 211 739 l 211 783 l 199 783 b 78 901 125 783 78 838 b 203 1021 78 969 135 1021 "},"«":{"ha":799,"x_min":0,"x_max":0,"o":"m 401 574 l 268 369 l 401 164 l 296 89 l 58 369 l 296 650 m 711 574 l 576 369 l 711 164 l 604 89 l 367 369 l 604 650 "},"»":{"ha":796,"x_min":0,"x_max":0,"o":"m 81 574 l 186 650 l 424 369 l 186 89 l 81 164 l 214 369 m 394 574 l 501 650 l 739 369 l 501 89 l 394 164 l 529 369 "},"‹":{"ha":482,"x_min":0,"x_max":0,"o":"m 401 574 l 268 369 l 401 164 l 296 89 l 58 369 l 296 650 "},"›":{"ha":494,"x_min":0,"x_max":0,"o":"m 93 574 l 199 650 l 436 369 l 199 89 l 93 164 l 226 369 "},"\"":{"ha":529,"x_min":0,"x_max":0,"o":"m 188 651 l 76 651 l 21 972 l 243 972 m 451 651 l 342 651 l 286 972 l 507 972 "},"'":{"ha":264,"x_min":0,"x_max":0,"o":"m 76 651 l 21 972 l 243 972 l 188 651 "},"¢":{"ha":715,"x_min":0,"x_max":0,"o":"m 675 254 b 457 147 622 200 547 160 l 457 -1 l 343 -1 l 343 149 b 44 488 164 175 44 314 b 343 826 44 661 168 799 l 343 971 l 457 971 l 457 828 b 665 732 546 817 617 778 l 556 604 b 406 664 526 633 472 664 b 225 488 299 664 225 585 b 406 313 225 386 303 311 b 563 375 468 313 524 336 "},"$":{"ha":703,"x_min":0,"x_max":0,"o":"m 657 275 b 413 -12 657 132 568 13 l 413 -114 l 299 -114 l 299 -15 b 47 196 158 4 75 100 l 222 265 b 343 168 240 203 292 168 b 456 271 407 168 456 206 b 372 381 456 319 424 351 l 254 444 b 71 719 158 496 71 572 b 299 983 71 851 160 957 l 299 1068 l 413 1068 l 413 988 b 621 846 499 975 575 928 l 463 746 b 364 813 449 781 417 813 b 267 719 308 813 267 772 b 346 606 267 668 296 633 l 467 544 b 657 275 576 489 657 407 "},"€":{"ha":1046,"x_min":0,"x_max":0,"o":"m 628 169 b 871 282 728 168 814 215 l 1007 146 b 628 -17 921 46 788 -17 b 154 303 393 -17 222 115 l 50 303 l 50 440 l 125 440 b 122 490 124 457 122 474 l 122 514 l 50 514 l 50 653 l 149 653 b 628 990 213 843 386 990 b 1008 829 788 990 919 926 l 874 694 b 628 804 817 761 728 806 b 364 653 511 804 415 746 l 724 653 l 678 514 l 326 514 b 325 490 325 506 325 499 b 328 440 325 474 326 457 l 654 440 l 610 303 l 378 303 b 628 169 431 221 521 169 "},"£":{"ha":856,"x_min":0,"x_max":0,"o":"m 769 171 l 769 0 l 90 0 l 90 161 b 247 360 171 199 247 264 b 244 401 247 375 246 389 l 90 401 l 90 557 l 194 557 b 175 693 183 594 175 638 b 489 990 175 847 289 990 b 758 851 603 990 707 938 l 619 743 b 490 815 601 776 556 815 b 356 676 406 815 356 751 b 376 557 356 629 365 592 l 639 557 l 639 401 l 418 401 b 421 354 419 386 421 371 b 338 171 421 275 388 217 "},"¥":{"ha":793,"x_min":0,"x_max":0,"o":"m 778 972 l 556 632 l 681 632 l 681 492 l 485 492 l 485 413 l 681 413 l 681 271 l 485 271 l 485 0 l 310 0 l 310 271 l 114 271 l 114 413 l 310 413 l 310 492 l 114 492 l 114 632 l 239 632 l 17 972 l 224 972 l 396 693 l 568 972 "},"+":{"ha":703,"x_min":0,"x_max":0,"o":"m 329 88 l 329 411 l 21 411 l 21 453 l 329 453 l 329 776 l 372 776 l 372 453 l 681 453 l 681 411 l 372 411 l 372 88 "},"−":{"ha":703,"x_min":0,"x_max":0,"o":"m 21 411 l 21 453 l 681 453 l 681 411 "},"×":{"ha":585,"x_min":0,"x_max":0,"o":"m 64 169 l 33 200 l 261 428 l 33 656 l 64 686 l 293 458 l 521 686 l 551 656 l 324 428 l 551 200 l 521 169 l 293 397 "},"÷":{"ha":703,"x_min":0,"x_max":0,"o":"m 349 597 b 271 674 304 597 271 631 b 349 751 271 717 304 751 b 424 674 392 751 424 717 b 349 597 424 631 392 597 m 21 411 l 21 453 l 681 453 l 681 411 m 349 114 b 271 190 304 114 271 149 b 349 268 271 233 304 268 b 424 190 392 268 424 233 b 349 114 424 149 392 114 "},"=":{"ha":703,"x_min":0,"x_max":0,"o":"m 21 550 l 21 592 l 681 592 l 681 550 m 21 272 l 21 314 l 681 314 l 681 272 "},">":{"ha":751,"x_min":0,"x_max":0,"o":"m 94 88 l 94 135 l 638 433 l 94 732 l 94 779 l 668 464 l 668 403 "},"<":{"ha":751,"x_min":0,"x_max":0,"o":"m 657 88 l 83 403 l 83 464 l 657 779 l 657 732 l 114 433 l 657 135 "},"~":{"ha":829,"x_min":0,"x_max":0,"o":"m 557 297 b 299 386 440 297 383 386 b 219 299 247 386 222 349 l 72 299 b 274 546 72 456 157 546 b 532 456 394 546 468 456 b 610 544 583 456 608 493 l 757 544 b 557 297 757 394 676 297 "},"^":{"ha":824,"x_min":0,"x_max":0,"o":"m 764 436 l 589 436 l 414 807 l 238 436 l 60 436 l 326 972 l 501 972 "},"%":{"ha":1125,"x_min":0,"x_max":0,"o":"m 293 565 b 79 776 169 565 79 658 b 292 990 79 894 169 990 b 511 776 419 990 511 896 b 293 565 511 660 418 565 m 226 0 l 731 972 l 899 972 l 393 0 m 294 683 b 386 776 350 683 386 725 b 293 872 386 829 349 872 b 204 776 239 872 204 829 b 294 683 204 725 240 683 m 829 -18 b 614 193 706 -18 614 74 b 828 407 614 311 704 407 b 1046 193 954 407 1046 311 b 829 -18 1046 75 953 -18 m 829 100 b 919 193 886 100 919 140 b 828 288 919 246 885 288 b 738 193 774 288 738 246 b 829 100 738 140 775 100 "},"‰":{"ha":1626,"x_min":0,"x_max":0,"o":"m 293 565 b 79 776 169 565 79 658 b 292 990 79 894 169 990 b 511 776 419 990 511 896 b 293 565 511 660 418 565 m 226 0 l 731 972 l 899 972 l 393 0 m 294 683 b 386 776 350 683 386 725 b 293 872 386 829 349 872 b 204 776 239 872 204 829 b 294 683 204 725 240 683 m 829 -18 b 614 193 706 -18 614 74 b 828 407 614 311 704 407 b 1046 193 954 407 1046 311 b 829 -18 1046 75 953 -18 m 1332 -18 b 1117 193 1208 -18 1117 74 b 1331 407 1117 311 1207 407 b 1549 193 1457 407 1549 311 b 1332 -18 1549 75 1456 -18 m 829 100 b 919 193 886 100 919 140 b 828 288 919 246 885 288 b 738 193 774 288 738 246 b 829 100 738 140 775 100 m 1332 100 b 1422 193 1388 100 1422 140 b 1331 288 1422 246 1386 288 b 1240 193 1276 288 1240 246 b 1332 100 1240 140 1278 100 "},"↑":{"ha":1067,"x_min":0,"x_max":0,"o":"m 442 0 l 442 733 l 199 461 l 69 603 l 533 1033 l 997 603 l 869 461 l 628 733 l 628 0 "},"↗":{"ha":947,"x_min":0,"x_max":0,"o":"m 58 290 l 576 810 l 211 789 l 221 981 l 854 957 l 878 324 l 686 314 l 707 678 l 189 160 "},"→":{"ha":1172,"x_min":0,"x_max":0,"o":"m 69 588 l 803 588 l 531 831 l 672 958 l 1103 494 l 672 31 l 531 160 l 803 401 l 69 401 "},"↘":{"ha":947,"x_min":0,"x_max":0,"o":"m 188 801 l 707 283 l 686 649 l 878 639 l 854 6 l 221 -18 l 211 174 l 575 153 l 57 671 "},"↓":{"ha":1067,"x_min":0,"x_max":0,"o":"m 442 972 l 628 972 l 628 239 l 869 513 l 997 369 l 533 -61 l 69 369 l 199 513 l 442 239 "},"↙":{"ha":947,"x_min":0,"x_max":0,"o":"m 760 801 l 890 671 l 372 153 l 736 174 l 726 -18 l 93 6 l 69 639 l 261 649 l 240 283 "},"←":{"ha":1172,"x_min":0,"x_max":0,"o":"m 1103 588 l 1103 401 l 369 401 l 643 160 l 500 31 l 69 494 l 500 958 l 643 831 l 369 588 "},"↖":{"ha":947,"x_min":0,"x_max":0,"o":"m 889 290 l 758 160 l 240 678 l 261 314 l 69 324 l 93 957 l 726 981 l 736 789 l 371 810 "},"@":{"ha":1263,"x_min":0,"x_max":0,"o":"m 635 903 b 1213 358 978 903 1213 650 b 961 43 1213 138 1101 43 b 810 115 890 43 838 72 b 628 43 761 72 699 43 b 351 318 467 43 351 158 b 626 592 351 476 467 592 b 768 551 679 592 726 576 l 768 579 l 879 579 l 879 269 b 963 182 879 217 911 183 b 1067 358 1024 181 1067 235 b 633 763 1067 572 914 763 b 204 322 357 763 204 551 b 619 -126 204 63 371 -126 b 878 -62 707 -126 804 -107 l 946 -185 b 625 -268 883 -228 754 -268 b 50 322 313 -268 50 -33 b 635 903 50 651 297 903 m 628 176 b 746 235 683 176 724 201 l 746 400 b 628 458 724 433 683 458 b 494 318 549 458 494 400 b 628 176 494 235 549 176 "},"&":{"ha":910,"x_min":0,"x_max":0,"o":"m 856 440 l 679 201 l 836 0 l 632 0 l 575 76 b 347 -18 529 26 454 -18 b 58 260 175 -18 58 108 b 232 514 58 376 129 478 l 204 550 b 129 738 172 593 129 668 b 399 990 129 875 235 990 b 665 738 542 990 664 886 b 551 544 665 656 610 575 l 460 665 b 492 735 481 685 492 710 b 399 829 492 792 447 829 b 301 735 336 829 301 778 b 356 621 301 688 322 665 l 578 332 l 657 440 m 351 144 b 468 203 400 144 431 160 l 333 381 b 229 263 276 372 229 332 b 351 144 229 194 283 144 "},"¶":{"ha":761,"x_min":0,"x_max":0,"o":"m 289 0 l 289 482 b 54 729 174 486 54 576 b 299 972 54 885 181 972 l 436 972 l 436 0 m 504 0 l 504 972 l 653 972 l 653 0 "},"§":{"ha":715,"x_min":0,"x_max":0,"o":"m 535 128 b 617 -61 583 82 617 24 b 335 -314 617 -204 506 -314 l 185 -314 l 185 -153 l 329 -153 b 436 -57 392 -153 436 -110 b 354 57 436 -8 407 19 l 206 158 b 58 389 121 217 58 283 b 182 594 58 478 107 551 b 100 782 133 640 100 697 b 382 1036 100 925 210 1036 l 531 1036 l 531 875 l 388 875 b 279 779 325 875 279 832 b 361 665 279 729 310 703 l 510 563 b 658 333 594 504 658 439 b 535 128 658 244 610 171 m 383 238 b 481 333 436 243 481 275 b 410 432 481 367 458 399 l 332 485 b 235 389 279 479 235 447 b 306 290 235 354 257 322 "},"©":{"ha":1267,"x_min":0,"x_max":0,"o":"m 629 990 b 1156 483 931 990 1156 765 b 632 -19 1156 201 933 -19 b 111 483 335 -19 111 201 b 629 990 111 764 338 990 m 632 72 b 1053 485 876 72 1053 250 b 629 896 1053 717 876 896 b 214 483 392 896 214 717 b 632 72 214 251 392 72 m 632 654 b 463 485 525 654 463 579 b 632 315 463 390 525 315 b 779 382 690 315 747 340 l 838 303 b 632 215 790 249 715 215 b 356 485 465 215 356 343 b 632 754 356 626 465 754 b 838 667 715 754 790 721 l 779 588 b 632 654 747 629 690 654 "},"®":{"ha":721,"x_min":0,"x_max":0,"o":"m 358 990 b 665 694 540 990 665 856 b 361 397 665 536 542 397 b 56 694 182 397 56 531 b 358 990 56 854 181 990 m 361 444 b 614 694 513 444 614 553 b 358 942 614 838 511 942 b 108 694 211 942 108 833 b 361 444 108 556 211 444 m 469 753 b 421 668 469 714 450 685 l 488 547 l 418 547 l 364 654 l 328 654 l 328 547 l 265 547 l 265 847 l 367 847 b 469 753 422 847 469 810 m 328 790 l 328 714 l 360 714 b 400 753 381 714 400 726 b 360 790 400 775 381 790 "},"™":{"ha":1114,"x_min":0,"x_max":0,"o":"m 71 864 l 71 972 l 439 972 l 439 864 l 314 864 l 314 472 l 197 472 l 197 864 m 888 972 l 1038 972 l 1038 472 l 925 472 l 925 771 l 826 472 l 729 472 l 631 771 l 631 472 l 518 472 l 518 972 l 668 972 l 778 646 "},"°":{"ha":557,"x_min":0,"x_max":0,"o":"m 278 539 b 46 764 140 539 46 639 b 278 990 46 888 143 990 b 511 765 414 990 511 886 b 278 539 511 639 415 539 m 278 674 b 369 765 332 674 369 714 b 278 854 369 815 332 854 b 188 764 226 854 188 815 b 278 674 188 714 225 674 "},"|":{"ha":444,"x_min":0,"x_max":0,"o":"m 129 -286 l 129 1088 l 315 1088 l 315 -286 "},"†":{"ha":574,"x_min":0,"x_max":0,"o":"m 201 325 l 201 729 l 65 715 l 65 878 l 201 864 l 201 1028 l 371 1028 l 371 864 l 508 878 l 508 715 l 371 729 l 371 325 "},"‡":{"ha":574,"x_min":0,"x_max":0,"o":"m 201 325 l 201 468 l 65 454 l 65 617 l 201 603 l 201 735 l 65 721 l 65 883 l 201 869 l 201 1028 l 371 1028 l 371 869 l 508 883 l 508 721 l 371 735 l 371 603 l 508 617 l 508 454 l 371 468 l 371 325 "},"№":{"ha":1569,"x_min":0,"x_max":0,"o":"m 1203 451 b 928 721 1039 451 928 571 b 1203 990 928 869 1039 990 b 1479 721 1367 990 1479 869 b 1203 451 1479 571 1367 451 m 646 354 l 646 972 l 828 972 l 828 0 l 640 0 l 292 615 l 292 0 l 108 0 l 108 972 l 297 972 m 1203 840 b 1085 721 1132 840 1085 786 b 1203 601 1085 654 1132 601 b 1321 721 1275 601 1321 654 b 1203 840 1321 786 1275 840 m 956 193 l 956 364 l 1450 364 l 1450 193 "},"̒":{"ha":0,"x_min":0,"x_max":0,"o":"m -158 986 b -69 901 -106 986 -69 949 b -162 813 -69 850 -111 813 b -267 922 -219 813 -267 851 l -267 996 b -129 1119 -267 1082 -204 1119 l -74 1119 l -74 1033 l -129 1033 b -175 990 -158 1033 -175 1018 l -175 986 "},"̦":{"ha":0,"x_min":0,"x_max":0,"o":"m -167 -74 b -69 -175 -114 -74 -69 -110 l -69 -243 b -199 -358 -69 -322 -128 -358 l -249 -358 l -249 -276 l -199 -276 b -156 -237 -171 -276 -156 -262 l -156 -233 l -171 -233 b -253 -156 -219 -233 -253 -199 b -167 -74 -253 -108 -214 -74 "},"¨":{"ha":599,"x_min":0,"x_max":0,"o":"m 167 840 b 69 940 111 840 69 883 b 167 1038 69 994 111 1038 b 268 940 228 1038 268 994 b 167 840 268 883 228 840 m 428 840 b 329 940 371 840 329 883 b 428 1038 329 994 371 1038 b 529 940 486 1038 529 994 b 428 840 529 883 486 840 "},"˙":{"ha":354,"x_min":0,"x_max":0,"o":"m 175 819 b 68 926 114 819 68 865 b 175 1031 68 985 114 1031 b 285 926 240 1031 285 985 b 175 819 285 865 240 819 "},"`":{"ha":404,"x_min":0,"x_max":0,"o":"m 335 840 l 196 840 l 69 1039 l 263 1039 "},"´":{"ha":404,"x_min":0,"x_max":0,"o":"m 69 840 l 142 1039 l 335 1039 l 208 840 "},"˝":{"ha":611,"x_min":0,"x_max":0,"o":"m 317 840 l 169 840 l 249 1043 l 435 1043 "},"ˆ":{"ha":589,"x_min":0,"x_max":0,"o":"m 519 842 l 371 842 l 296 921 l 221 842 l 69 842 l 199 1032 l 390 1032 "},"ˇ":{"ha":589,"x_min":0,"x_max":0,"o":"m 371 1032 l 519 1032 l 390 842 l 199 842 l 69 1032 l 221 1032 l 296 953 "},"˘":{"ha":533,"x_min":0,"x_max":0,"o":"m 268 832 b 69 1029 135 832 69 918 l 203 1029 b 268 953 203 985 222 953 b 332 1029 310 953 332 986 l 464 1029 b 268 832 464 918 399 832 "},"˚":{"ha":428,"x_min":0,"x_max":0,"o":"m 214 797 b 69 935 132 797 69 857 b 213 1071 69 1014 132 1071 b 358 936 297 1071 358 1014 b 214 797 358 857 296 797 m 214 879 b 269 936 247 879 269 903 b 213 990 269 967 247 990 b 158 935 182 990 158 967 b 214 879 158 903 182 879 "},"˜":{"ha":572,"x_min":0,"x_max":0,"o":"m 375 851 b 303 868 346 851 325 858 l 244 892 b 214 900 231 897 224 900 b 185 871 197 900 185 889 l 185 853 l 69 853 l 69 899 b 197 1031 69 982 124 1031 b 267 1014 221 1031 244 1024 l 321 992 b 360 982 336 985 347 982 b 389 1011 375 982 389 993 l 389 1029 l 503 1029 l 503 982 b 375 851 503 900 449 851 "},"¯":{"ha":511,"x_min":0,"x_max":0,"o":"m 69 868 l 69 1010 l 442 1010 l 442 868 "},"¸":{"ha":411,"x_min":0,"x_max":0,"o":"m 81 -310 l 81 -215 l 186 -215 b 231 -175 213 -215 231 -199 b 186 -137 231 -151 213 -137 l 93 -137 l 124 19 l 219 19 l 203 -47 l 215 -47 b 342 -176 293 -47 342 -107 b 207 -310 342 -254 282 -310 "},"˛":{"ha":411,"x_min":0,"x_max":0,"o":"m 225 -310 b 69 -167 140 -310 69 -258 b 142 -31 69 -111 96 -71 l 232 57 l 342 0 l 239 -99 b 217 -142 228 -110 217 -122 b 271 -187 217 -169 239 -187 l 342 -187 l 342 -310 "}}}
